<svg width="599" height="574" viewBox="0 0 599 574" fill="none" xmlns="http://www.w3.org/2000/svg">
<path fill-rule="evenodd" clip-rule="evenodd" d="M419.166 259.806C390.215 303.93 341.099 332.082 284.397 332.082C245.065 332.082 206.531 315.111 178.379 291.751L223.702 243.434C239.674 253.417 260.638 262.002 280.803 262.002C319.537 262.002 352.879 240.839 370.849 209.294L419.166 259.806Z" fill="#99D8F5"/>
<path fill-rule="evenodd" clip-rule="evenodd" d="M253.85 191.921C253.85 166.565 274.414 146.201 299.771 146.201C325.126 146.201 345.691 166.565 345.691 191.921C345.691 217.278 325.126 237.844 299.771 237.844C274.414 237.844 253.85 217.278 253.85 191.921Z" fill="#F1A5CC"/>
<path fill-rule="evenodd" clip-rule="evenodd" d="M486.65 328.886C438.731 382.194 369.251 415.738 291.785 415.738C227.095 415.738 167.797 392.178 122.075 353.244C119.481 351.049 118.682 349.852 118.682 349.852L158.414 308.521L163.205 311.317C195.35 330.685 233.086 341.864 273.415 341.864C336.109 341.864 392.213 314.91 431.545 272.185L486.65 328.886Z" fill="#1476C6"/>
<path d="M203.278 527.61C203.175 526.505 203.11 525.682 203.093 525.178C203.077 524.676 203.077 524.205 203.077 523.769C203.077 516.173 205.005 510.337 208.845 506.26C212.702 502.185 218.202 500.138 225.381 500.138C231.301 500.138 236.131 501.884 239.855 505.356C243.562 508.826 245.422 513.321 245.422 518.856C245.422 521.874 244.786 524.844 243.529 527.777C242.27 530.713 240.359 533.632 237.777 536.549L213.106 564.942H237.574V552.129H246.313V572.172H202.774V565.445L230.933 531.837C232.694 529.773 234.035 527.628 234.925 525.397C235.83 523.166 236.283 520.886 236.283 518.521C236.283 515.284 235.243 512.717 233.146 510.856C231.05 508.994 228.166 508.054 224.493 508.054C220.182 508.054 216.962 509.364 214.866 511.98C212.77 514.613 211.73 518.605 211.73 523.97C211.73 524.928 211.73 525.648 211.747 526.169C211.763 526.672 211.797 527.141 211.83 527.56L203.278 527.61ZM255.453 545.79V527.896C255.453 522.797 255.703 519.057 256.19 516.726C256.675 514.377 257.481 512.282 258.587 510.404C260.566 507.068 263.115 504.534 266.253 502.822C269.405 501.096 273.027 500.241 277.119 500.241C281.213 500.241 284.851 501.112 288.021 502.84C291.207 504.584 293.739 507.098 295.635 510.404C296.693 512.214 297.447 514.209 297.933 516.422C298.401 518.637 298.637 521.757 298.637 525.782V527.896V548.138C298.637 551.46 298.486 554.041 298.169 555.937C297.866 557.814 297.346 559.576 296.625 561.22C294.947 565.11 292.398 568.145 288.978 570.326C285.555 572.508 281.598 573.596 277.119 573.596C273.061 573.596 269.438 572.725 266.286 570.964C263.115 569.218 260.566 566.67 258.587 563.334C257.481 561.421 256.675 559.308 256.19 556.992C255.703 554.661 255.453 550.921 255.453 545.79ZM264.341 545.588C264.341 549.397 264.475 552.181 264.761 553.941C265.045 555.72 265.481 557.229 266.118 558.469C267.225 560.666 268.718 562.36 270.613 563.55C272.493 564.741 274.621 565.346 277.018 565.346C279.418 565.346 281.565 564.741 283.475 563.55C285.405 562.36 286.898 560.666 287.987 558.469C288.642 557.194 289.093 555.668 289.379 553.89C289.665 552.129 289.798 549.362 289.798 545.588V528.096C289.798 524.658 289.698 522.177 289.498 520.65C289.314 519.124 288.994 517.782 288.574 516.59C287.686 514.11 286.194 512.114 284.097 510.621C282.001 509.129 279.635 508.39 277.018 508.39C274.687 508.39 272.575 508.994 270.679 510.202C268.785 511.426 267.258 513.12 266.118 515.317C265.481 516.56 265.045 518.068 264.761 519.846C264.475 521.606 264.341 524.356 264.341 528.096V545.588ZM308.565 545.79V527.896C308.565 522.797 308.817 519.057 309.303 516.726C309.789 514.377 310.595 512.282 311.701 510.404C313.681 507.068 316.23 504.534 319.366 502.822C322.518 501.096 326.141 500.241 330.234 500.241C334.326 500.241 337.965 501.112 341.135 502.84C344.321 504.584 346.853 507.098 348.749 510.404C349.806 512.214 350.561 514.209 351.047 516.422C351.515 518.637 351.751 521.757 351.751 525.782V527.896V548.138C351.751 551.46 351.601 554.041 351.282 555.937C350.978 557.814 350.459 559.576 349.737 561.22C348.061 565.11 345.511 568.145 342.091 570.326C338.669 572.508 334.711 573.596 330.234 573.596C326.174 573.596 322.553 572.725 319.398 570.964C316.23 569.218 313.681 566.67 311.701 563.334C310.595 561.421 309.789 559.308 309.303 556.992C308.817 554.661 308.565 550.921 308.565 545.79ZM317.454 545.588C317.454 549.397 317.587 552.181 317.873 553.941C318.159 555.72 318.594 557.229 319.23 558.469C320.339 560.666 321.831 562.36 323.726 563.55C325.606 564.741 327.734 565.346 330.133 565.346C332.53 565.346 334.678 564.741 336.589 563.55C338.518 562.36 340.011 560.666 341.102 558.469C341.757 557.194 342.207 555.668 342.493 553.89C342.778 552.129 342.911 549.362 342.911 545.588V528.096C342.911 524.658 342.811 522.177 342.611 520.65C342.426 519.124 342.107 517.782 341.687 516.59C340.799 514.11 339.307 512.114 337.21 510.621C335.114 509.129 332.749 508.39 330.133 508.39C327.801 508.39 325.689 508.994 323.793 510.202C321.897 511.426 320.373 513.12 319.23 515.317C318.594 516.56 318.159 518.068 317.873 519.846C317.587 521.606 317.454 524.356 317.454 528.096V545.588ZM396.614 519.745C396.127 515.856 394.851 512.918 392.822 510.972C390.793 509.028 387.993 508.054 384.421 508.054C379.775 508.054 376.487 509.364 374.593 511.964C372.698 514.564 371.742 519.46 371.742 526.672V534.721C373.57 532.961 375.631 531.634 377.879 530.746C380.143 529.857 382.643 529.422 385.359 529.422C391.23 529.422 396.109 531.501 400.001 535.644C403.909 539.786 405.854 544.985 405.854 551.241C405.854 557.765 403.875 563.114 399.934 567.306C395.993 571.501 390.911 573.596 384.722 573.596C378.047 573.596 372.73 571.433 368.806 567.089C364.865 562.746 362.902 556.858 362.902 549.412V523.485C362.902 516.138 364.814 510.437 368.655 506.362C372.481 502.286 377.846 500.241 384.722 500.241C390.675 500.241 395.522 502.018 399.263 505.574C403.003 509.129 404.865 513.725 404.865 519.358V519.745H396.614ZM384.421 565.833C388.159 565.833 391.195 564.508 393.526 561.856C395.858 559.189 397.015 555.686 397.015 551.341C397.015 546.981 395.858 543.493 393.526 540.86C391.195 538.245 388.159 536.934 384.421 536.934C380.73 536.934 377.711 538.245 375.398 540.86C373.101 543.493 371.943 546.981 371.943 551.341C371.943 555.686 373.101 559.189 375.398 561.856C377.711 564.508 380.73 565.833 384.421 565.833Z" fill="#F1A5CC"/>
<path fill-rule="evenodd" clip-rule="evenodd" d="M175.647 465.588L136.813 554.122C-0.46849 462.184 -24.5452 303.854 21.0471 192.978C66.4687 82.5171 179.194 1.13441 294.037 0.298406C565.386 -12.0456 728.657 363.74 463.078 555.873L424.243 467.341C588.795 327.022 487.183 95.4624 293.458 94.3477C133.411 100.202 5.34964 319.17 175.647 465.588Z" fill="#1476C6"/>
<path d="M102.563 392.105L93.6753 402.015L104.839 421.35L118.006 418.851L122.591 426.793L57.7273 436.104L56.6433 434.228L98.0193 384.236L102.563 392.105ZM70.998 427.634L98.53 422.474L89.6233 407.049L70.998 427.634ZM86.1966 342.242L64.3193 366.113L77.4353 370.67L93.0646 366.189L95.3233 374.065L37.6433 390.604L35.385 382.728L66.7646 373.73L29.2418 361.306L26.7262 352.532L56.6673 362.606L83.7046 333.546L86.1966 342.242ZM81.5673 324.616L73.9326 321.889C74.9966 320.328 75.8646 318.38 76.5273 316.077C77.202 313.773 77.5073 311.718 77.4446 309.917C77.334 306.733 76.3633 304.192 74.5486 302.325C72.7353 300.444 70.4806 299.557 67.7846 299.65C65.758 299.722 63.9033 300.318 62.2086 301.454C60.514 302.59 58.722 305.366 56.8206 309.785L54.7402 314.696C52.9684 318.844 50.8053 321.786 48.2481 323.498C45.6798 325.225 42.5632 326.145 38.8752 326.274C34.4038 326.429 30.6324 324.966 27.573 321.911C24.5153 318.845 22.9058 314.829 22.7324 309.87C22.5006 303.233 23.4162 298.585 25.4762 295.91L32.6856 298.078C31.9277 299.195 31.2324 300.9 30.57 303.161C29.9069 305.422 29.6162 307.502 29.6829 309.416C29.7804 312.197 30.6392 314.364 32.2881 315.901C33.9225 317.453 35.9902 318.178 38.4626 318.09C40.0001 318.037 41.3741 317.695 42.61 317.078C43.8481 316.462 44.8678 315.63 45.685 314.579C46.4877 313.529 47.6017 311.393 49.0282 308.168L51.1897 303.168C52.9746 299.021 55.1949 296.062 57.8193 294.32C60.458 292.577 63.8393 291.633 67.9886 291.489C72.4873 291.332 76.378 293.001 79.6353 296.509C82.9046 300.02 84.638 304.798 84.8486 310.849C85.0353 316.172 83.9366 320.754 81.5673 324.616ZM91.5526 244.157L78.3153 245.575L73.674 267.413L85.1313 274.365L83.2246 283.336L28.7918 246.853L29.2418 244.733L93.442 235.269L91.5526 244.157ZM44.3205 249.439L68.2326 264.028L71.9353 246.605L44.3205 249.439ZM112.155 194.626L82.1073 198.769C81.3633 200.442 80.058 203.029 78.2046 206.536L102.115 217.18L98.782 224.664L43.9653 200.258C44.0861 199.99 44.86 198.009 46.2714 194.322C47.6897 190.624 48.7657 187.965 49.5001 186.316C55.3626 173.149 63.5326 168.89 74.0193 173.558C77.454 175.088 80.086 177.53 81.8993 180.88C83.702 184.221 84.306 187.505 83.6686 190.725L115.973 186.054L112.155 194.626ZM54.0288 195.772L71.8446 203.703C72.8833 202.023 73.7913 200.33 74.5473 198.633C76.5433 194.149 77.2846 190.559 76.7366 187.87C76.2086 185.17 74.086 183 70.3686 181.345C67.3033 179.981 64.6046 180.096 62.274 181.689C59.9526 183.289 57.73 186.462 55.62 191.2C55.2908 191.94 54.7637 193.466 54.0288 195.772ZM145.981 152.03L133.63 147.067L119.278 164.17L126.13 175.688L120.235 182.712L89.302 124.946L90.694 123.285L151.822 145.069L145.981 152.03ZM101.799 134.518L116.063 158.626L127.513 144.982L101.799 134.518ZM153.341 109.07L170.25 129.953L163.883 135.109L146.974 114.226L111.095 100.645L117.658 95.3302L145.77 106.297L140.887 76.5209L147.45 71.2062L153.341 109.07ZM196.613 43.5809L204.359 40.9129L217.731 79.7502C218.923 83.2129 221.005 85.6915 223.963 87.1555C226.926 88.6342 230.221 88.7569 233.842 87.5102C237.663 86.1942 240.291 84.0769 241.738 81.1542C243.186 78.2302 243.269 74.9049 241.989 71.1889L228.681 32.5395L236.426 29.8715L250.013 69.3302C251.989 75.0675 251.743 80.1489 249.267 84.5942C246.807 89.0489 242.481 92.3275 236.309 94.4529C229.963 96.6382 224.53 96.7489 220.01 94.7862C215.49 92.8235 212.215 88.8942 210.186 82.9995L196.613 43.5809ZM201.738 26.7342C202.953 26.3155 204.118 26.3875 205.257 26.9422C206.374 27.4888 207.153 28.3755 207.566 29.5782C207.985 30.7942 207.918 31.9702 207.381 33.1156C206.826 34.2529 205.958 35.0395 204.742 35.4582C203.526 35.8769 202.345 35.7969 201.194 35.2462C200.053 34.6795 199.275 33.7929 198.857 32.5769C198.442 31.3742 198.51 30.1968 199.069 29.0728C199.637 27.9315 200.522 27.1542 201.738 26.7342ZM220.021 20.4395C221.223 20.0248 222.413 20.0889 223.55 20.6435C224.683 21.1849 225.474 22.0648 225.887 23.2675C226.307 24.4848 226.226 25.6662 225.675 26.8169C225.121 27.9542 224.227 28.7502 223.025 29.1648C221.807 29.5822 220.627 29.5022 219.503 28.9409C218.362 28.3755 217.583 27.4888 217.165 26.2728C216.75 25.0702 216.818 23.8928 217.377 22.7702C217.918 21.6355 218.803 20.8582 220.021 20.4395ZM310.773 81.6035L276.058 40.6049L279.81 83.4862L272.053 84.1635L266.822 24.3889L270.095 24.1035L303.781 62.8088L300.165 21.4728L307.921 20.7929L313.223 81.3902L310.773 81.6035ZM331.433 85.4355L343.906 26.7435L351.919 28.4462L339.446 87.1382L331.433 85.4355ZM350.854 13.3555C352.167 13.6342 353.189 14.3382 353.911 15.4502C354.633 16.5595 354.862 17.7662 354.59 19.0529C354.313 20.3515 353.61 21.3729 352.499 22.0942C351.385 22.8302 350.167 23.0435 348.855 22.7648C347.583 22.4942 346.571 21.8076 345.853 20.6822C345.118 19.5676 344.903 18.3516 345.181 17.0516C345.459 15.7396 346.147 14.7275 347.243 14.0022C348.353 13.2955 349.557 13.0795 350.854 13.3555ZM377.045 98.9142L373.155 97.5008L372.941 32.6889L381.479 35.7969L380.882 82.6088L409.961 46.1635L418.238 49.1769L377.045 98.9142ZM443.695 72.5622L434.369 86.3889L450.803 97.4742L446.91 103.246L430.475 92.1609L418.382 110.092L440.935 125.304L436.815 131.413L407.469 111.618L441.023 61.8715L470.741 81.9169L466.621 88.0249L443.695 72.5622ZM470.037 165.077L477.451 135.662C476.178 134.345 474.269 132.166 471.711 129.136L452.886 147.316L447.195 141.422L490.358 99.7395C490.562 99.9528 492.109 101.412 494.998 104.104C497.897 106.802 499.958 108.797 501.211 110.093C511.225 120.462 512.111 129.633 503.855 137.608C501.15 140.22 497.899 141.745 494.117 142.173C490.341 142.59 487.07 141.921 484.323 140.124L476.554 171.824L470.037 165.077ZM490.749 110.75L476.721 124.3C477.889 125.892 479.119 127.368 480.41 128.705C483.819 132.234 486.867 134.265 489.567 134.767C492.269 135.287 495.077 134.132 498.003 131.306C500.417 128.976 501.321 126.43 500.717 123.67C500.102 120.921 497.994 117.67 494.391 113.941C493.829 113.356 492.611 112.297 490.749 110.75ZM483.354 177.667L491.354 176.352C491.181 178.232 491.365 180.357 491.902 182.69C492.43 185.033 493.158 186.978 494.086 188.522C495.729 191.256 497.807 193.006 500.299 193.761C502.798 194.526 505.199 194.208 507.513 192.82C509.25 191.774 510.582 190.354 511.513 188.54C512.446 186.724 512.667 183.426 512.189 178.641L511.626 173.336C511.167 168.85 511.631 165.228 513.037 162.49C514.447 159.734 516.727 157.42 519.89 155.518C523.726 153.214 527.733 152.666 531.89 153.854C536.053 155.054 539.405 157.786 541.961 162.041C545.382 167.734 546.837 172.242 546.33 175.58L538.971 177.18C539.093 175.834 538.877 174.006 538.359 171.709C537.841 169.409 537.089 167.448 536.102 165.806C534.67 163.421 532.867 161.942 530.681 161.397C528.499 160.833 526.339 161.201 524.219 162.476C522.899 163.269 521.863 164.232 521.081 165.372C520.297 166.512 519.809 167.734 519.603 169.05C519.41 170.356 519.471 172.765 519.787 176.277L520.321 181.697C520.77 186.19 520.263 189.854 518.813 192.652C517.349 195.454 514.849 197.918 511.29 200.057C507.433 202.374 503.221 202.802 498.673 201.312C494.11 199.828 490.278 196.489 487.159 191.3C484.415 186.734 483.154 182.191 483.354 177.667ZM503.827 221.922L560.894 203.381L563.425 211.17L506.357 229.714L503.827 221.922ZM575.961 202.702C576.377 203.98 576.278 205.217 575.677 206.397C575.074 207.577 574.145 208.38 572.895 208.786C571.631 209.196 570.395 209.098 569.215 208.495C568.021 207.899 567.227 206.952 566.814 205.676C566.411 204.438 566.501 203.22 567.117 202.036C567.713 200.841 568.661 200.049 569.923 199.638C571.198 199.222 572.419 199.313 573.595 199.9C574.762 200.506 575.551 201.44 575.961 202.702ZM567.631 260.009L515.795 269.15L514.373 261.082L566.21 251.941L562.897 233.149L570.151 231.87L578.351 278.377L571.097 279.657L567.631 260.009ZM570.693 311.469L554.038 310.597L552.999 330.393L546.047 330.028L547.083 310.233L525.487 309.1L524.063 336.269L516.705 335.882L518.558 300.533L578.479 303.674L576.605 339.47L569.246 339.085L570.693 311.469ZM516.294 347.146L522.625 352.21C521.111 353.341 519.655 354.898 518.279 356.861C516.891 358.82 515.934 360.661 515.407 362.386C514.474 365.434 514.565 368.152 515.673 370.506C516.774 372.877 518.619 374.449 521.199 375.238C523.137 375.83 525.083 375.87 527.057 375.349C529.029 374.823 531.627 372.784 534.862 369.226L538.43 365.257C541.455 361.914 544.458 359.835 547.434 359.049C550.426 358.253 553.671 358.398 557.201 359.477C561.477 360.785 564.567 363.397 566.466 367.279C568.358 371.178 568.573 375.497 567.122 380.242C565.179 386.594 562.802 390.689 559.982 392.547L553.873 388.15C554.953 387.341 556.165 385.957 557.527 384.034C558.89 382.112 559.843 380.24 560.402 378.409C561.217 375.748 561.11 373.42 560.051 371.43C559.01 369.43 557.291 368.073 554.925 367.349C553.453 366.899 552.045 366.774 550.674 366.956C549.303 367.136 548.067 367.59 546.953 368.318C545.853 369.048 544.105 370.706 541.706 373.292L538.034 377.314C534.995 380.654 531.934 382.73 528.885 383.522C525.822 384.312 522.319 384.104 518.347 382.889C514.043 381.573 510.907 378.728 508.97 374.352C507.021 369.968 506.939 364.885 508.709 359.096C510.266 354.001 512.797 350.023 516.294 347.146ZM497.539 392.644L551.469 418.95L547.879 426.313L493.949 400.008L497.539 392.644ZM562.779 428.929C562.19 430.134 561.261 430.958 560.007 431.389C558.755 431.82 557.53 431.752 556.349 431.177C555.155 430.593 554.334 429.663 553.901 428.411C553.458 427.151 553.545 425.918 554.133 424.711C554.703 423.543 555.615 422.73 556.881 422.304C558.138 421.86 559.371 421.948 560.565 422.529C561.771 423.118 562.586 424.029 563.023 425.269C563.443 426.516 563.361 427.737 562.779 428.929Z" fill="white"/>
</svg>
