<svg width="360" height="131" viewBox="0 0 360 131" fill="none" xmlns="http://www.w3.org/2000/svg">
<path fill-rule="evenodd" clip-rule="evenodd" d="M95.8367 84.1598C82.0294 84.1598 68.222 81.0993 57.7081 74.9741C41.9164 65.7842 37.9685 52.2997 45.8602 40.9624L49.5913 36.8387L71.9573 37.7894H72.2617L68.1637 41.0208C59.8342 49.1141 61.2225 60.1386 72.32 67.2645C78.6609 71.3382 86.9862 73.3771 95.3072 73.3771C103.624 73.3771 111.945 71.3382 118.286 67.2645C129.384 60.1386 130.772 49.1141 122.451 41.0208L118.532 37.9353L129.05 37.7894L142.432 37.2181L145.817 40.9624C153.713 52.2997 149.761 65.7842 133.978 74.9741C123.451 81.0993 109.64 84.1598 95.8367 84.1598Z" fill="#CADCE8"/>
<path fill-rule="evenodd" clip-rule="evenodd" d="M186.739 36.3633L185.593 34.4911L183.521 34.7038L164.527 36.0589L166.908 39.9158C174.412 54.276 168.158 70.4542 148.152 81.7872C142.674 84.8894 136.546 87.3996 130.017 89.3343H164.16C188.615 74.8198 196.157 54.472 186.739 36.3633Z" fill="#CADCE8"/>
<path fill-rule="evenodd" clip-rule="evenodd" d="M26.4999 89.3384H60.8556C54.3355 87.3995 48.2072 84.8894 42.7252 81.783C20.8969 69.4243 15.444 51.2947 26.354 36.0464L26.9084 35.3709L17.4701 34.6996L5.67631 33.5029L3.92539 36.3675C-5.49212 54.4762 2.03688 74.8281 26.4999 89.3384Z" fill="#CADCE8"/>
<path fill-rule="evenodd" clip-rule="evenodd" d="M190.641 89.3301H215.35C234.314 71.5342 238.579 50.3441 228.111 31.0346L227.244 29.6794L209.189 32.0978L205.741 32.4481L207.704 35.4335C217.714 53.4922 212.015 73.4897 190.641 89.3301Z" fill="#CADCE8"/>
<path fill-rule="evenodd" clip-rule="evenodd" d="M237.962 89.3301H261.129C277.567 68.9698 279.955 46.1578 268.237 25.0929L266.761 22.8538L256.626 24.9553L246.192 26.7148L247.767 29.0957C258.886 48.9306 255.601 70.5334 237.962 89.3301Z" fill="#CADCE8"/>
<path fill-rule="evenodd" clip-rule="evenodd" d="M283.578 89.3301H306.99C321.29 66.7182 322.169 42.1924 309.584 19.3512L305.561 13.1802L297.965 15.5027L285.454 18.6549L288.318 23.0497C300.279 44.7234 298.682 68.0984 283.578 89.3301Z" fill="#CADCE8"/>
<path fill-rule="evenodd" clip-rule="evenodd" d="M328.935 89.3384H350.522C365.722 60.1177 362.645 28.7287 341.255 0.396115L340.933 0L332.079 4.04037L323.187 7.33021L329.565 17.0121C342.701 40.5913 342.484 65.8176 328.935 89.3384Z" fill="#CADCE8"/>
<path d="M57.9999 118.609C55.5111 126.732 46.6939 130.468 36.9971 130.468C30.9856 130.468 25.1325 129.417 20.4842 126.077C16.0735 122.866 13.7514 118.284 13.8306 113.497C13.7473 108.977 15.9151 104.061 19.7629 100.855C23.9318 97.3149 30.181 95.6763 36.0341 95.6763C49.6622 95.6763 57.9999 102.886 57.9999 113.893V115.661H30.5061C30.5061 119.264 31.9528 121.882 36.7595 121.882C40.3656 121.882 42.3708 120.707 43.0128 117.821L57.9999 118.609ZM41.9706 109.107C41.9706 105.829 40.6866 103.344 36.1967 103.344C32.0278 103.344 30.5061 106.029 30.5061 109.107H41.9706Z" fill="#1B1816"/>
<path d="M87.4155 64.6251V99.0912C84.9309 97.0606 81.5666 95.6804 77.6353 95.6804C65.2913 95.6804 61.285 104.658 61.285 113.239C61.285 121.495 65.3705 130.472 77.1559 130.472C82.2836 130.472 85.7355 129.029 88.0575 125.36H88.2159V129.813H103.291V65.017C98.6298 68.7113 91.9304 68.582 87.4155 64.6251ZM86.4567 120.048C85.577 121.165 84.5348 121.749 82.9298 121.749C77.9605 121.749 77.7187 116.508 77.7187 113.56C77.7187 111.725 78.0397 109.169 78.5191 107.335C78.9985 105.308 80.1992 103.799 83.0048 103.799C84.293 103.799 85.7313 104.253 86.4525 105.108C87.4947 106.155 87.4113 107.731 87.4113 109.036V115.782C87.4155 117.429 87.5781 118.609 86.4567 120.048Z" fill="#1B1816"/>
<path d="M134.628 129.809V124.309H134.47C132.785 128.633 127.333 130.468 122.046 130.468C118.678 130.468 115.393 129.813 112.908 127.912C110.023 125.56 109.702 122.612 109.702 119.468V96.3393H125.573V116.579C125.573 118.743 125.49 121.032 129.1 121.032C130.705 121.032 132.227 120.31 132.952 119.135C133.673 118.017 133.748 116.841 133.748 115.595V96.3351H149.624V129.809H134.628Z" fill="#1B1816"/>
<path fill-rule="evenodd" clip-rule="evenodd" d="M171.419 103.211C172.782 98.5617 175.746 95.2843 182.083 95.6721L184.246 95.8055V107.531C183.287 107.33 182.245 107.201 181.203 107.201C178.639 107.201 175.992 107.597 174.712 109.499C173.586 111.137 173.586 113.297 173.586 115.265V129.805H157.711V96.3309H171.26V103.207L171.419 103.211Z" fill="#00658A"/>
<path fill-rule="evenodd" clip-rule="evenodd" d="M231.617 113.368C231.617 123.521 221.599 130.468 209.097 130.468C196.59 130.468 186.572 123.521 186.572 113.368C186.572 102.623 196.273 95.6763 209.097 95.6763C221.92 95.6763 231.617 102.623 231.617 113.368ZM203.561 112.909C203.561 121.882 206.208 122.545 209.093 122.545C211.973 122.545 214.621 121.887 214.621 112.909C214.621 109.699 214.537 103.87 209.093 103.87C203.644 103.87 203.561 109.699 203.561 112.909Z" fill="#00658A"/>
<path fill-rule="evenodd" clip-rule="evenodd" d="M262.88 129.809C262.475 128.308 262.317 126.732 262.317 125.16C259.107 129.025 254.542 130.463 248.93 130.463C241.314 130.463 234.66 127.061 234.66 120.373C234.66 115.073 239.709 111.529 245.404 110.087C250.611 108.777 256.143 108.256 261.512 107.993V107.735C261.512 104.716 260.553 103.54 256.705 103.54C253.579 103.54 250.932 104.453 250.452 107.272L235.861 106.159C238.266 97.8403 247.967 95.6721 257.185 95.6721C261.992 95.6721 268.166 96.2017 272.172 98.5575C277.546 101.635 276.904 105.959 276.904 110.745V122.47C276.904 124.96 276.987 127.449 278.188 129.809H262.88ZM261.516 114.152C257.668 114.477 251.257 115.461 251.257 119.527C251.257 121.686 252.937 122.604 255.426 122.604C261.433 122.604 261.516 118.476 261.516 114.807V114.152Z" fill="#00658A"/>
<path fill-rule="evenodd" clip-rule="evenodd" d="M297.506 96.3351V100.855H297.665C299.912 97.4484 304.001 95.6763 308.808 95.6763C313.861 95.6763 317.867 97.2524 320.356 100.855C323.162 97.119 327.247 95.6763 332.617 95.6763C336.06 95.6763 339.75 96.531 342.155 98.5616C345.123 101.051 345.123 104.328 345.123 107.864V129.809H329.573V109.699C329.573 107.535 329.89 105.112 326.205 105.112C321.715 105.112 321.877 108.515 321.877 111.204V129.809H306.328V109.699C306.328 107.601 306.169 104.916 302.722 104.916C298.953 104.916 298.636 107.209 298.636 109.699V129.809H283.086V96.3351H297.506Z" fill="#00658A"/>
<path fill-rule="evenodd" clip-rule="evenodd" d="M102.945 61.6521C98.8883 65.7092 92.3014 65.7092 88.2493 61.6521C84.1971 57.5951 84.193 51.0071 88.2493 46.9542C92.3056 42.9013 98.8924 42.8971 102.945 46.9542C107.001 51.0071 107.001 57.5951 102.945 61.6521Z" fill="#1B1816"/>
</svg>
