<svg width="192" height="192" viewBox="0 0 192 192" fill="none" xmlns="http://www.w3.org/2000/svg">
<path d="M110.927 73.8675C110.927 72.7722 111.324 71.6453 112.118 70.4867C112.906 69.3329 113.787 68.5735 114.761 68.2084C118.29 66.9914 121.82 66.0786 125.349 65.4701C128.878 64.8616 132.59 64.5574 136.485 64.5574C138.919 64.5574 141.324 64.7083 143.699 65.0101C146.07 65.3168 148.411 65.7135 150.724 66.2003C151.819 66.4437 152.761 67.0522 153.55 68.0258C154.343 68.9995 154.74 70.0948 154.74 71.3118C154.74 73.3807 154.071 74.902 152.732 75.8756C151.393 76.8492 149.689 77.0926 147.62 76.6058C145.917 76.2407 144.123 75.9657 142.239 75.7807C140.35 75.6006 138.432 75.5105 136.485 75.5105C133.32 75.5105 130.217 75.8148 127.174 76.4233C124.132 77.0318 121.211 77.8228 118.412 78.7964C116.221 79.6484 114.427 79.5875 113.03 78.6139C111.628 77.6403 110.927 76.0582 110.927 73.8675ZM110.927 114.029C110.927 112.934 111.324 111.807 112.118 110.648C112.906 109.494 113.787 108.735 114.761 108.37C118.29 107.153 121.82 106.24 125.349 105.632C128.878 105.023 132.59 104.719 136.485 104.719C138.919 104.719 141.324 104.87 143.699 105.172C146.07 105.478 148.411 105.875 150.724 106.362C151.819 106.605 152.761 107.214 153.55 108.187C154.343 109.161 154.74 110.256 154.74 111.473C154.74 113.542 154.071 115.064 152.732 116.037C151.393 117.011 149.689 117.254 147.62 116.767C145.917 116.402 144.123 116.127 142.239 115.942C140.35 115.762 138.432 115.672 136.485 115.672C133.32 115.672 130.217 115.947 127.174 116.497C124.132 117.042 121.211 117.802 118.412 118.775C116.221 119.627 114.427 119.596 113.03 118.681C111.628 117.77 110.927 116.22 110.927 114.029ZM110.927 93.9483C110.927 92.853 111.324 91.726 112.118 90.5674C112.906 89.4137 113.787 88.6543 114.761 88.2892C118.29 87.0722 121.82 86.1594 125.349 85.5509C128.878 84.9424 132.59 84.6381 136.485 84.6381C138.919 84.6381 141.324 84.789 143.699 85.0909C146.07 85.3975 148.411 85.7943 150.724 86.2811C151.819 86.5245 152.761 87.133 153.55 88.1066C154.343 89.0802 154.74 90.1756 154.74 91.3926C154.74 93.4615 154.071 94.9828 152.732 95.9564C151.393 96.93 149.689 97.1734 147.62 96.6866C145.917 96.3215 144.123 96.0464 142.239 95.8615C140.35 95.6813 138.432 95.5913 136.485 95.5913C133.32 95.5913 130.217 95.8955 127.174 96.504C124.132 97.1125 121.211 97.9036 118.412 98.8772C116.221 99.7291 114.427 99.6683 113.03 98.6947C111.628 97.7211 110.927 96.1389 110.927 93.9483ZM56.1615 126.625C61.8815 126.625 67.4506 127.263 72.8688 128.538C78.282 129.819 83.6661 131.737 89.021 134.292V62.3667C84.0312 59.4459 78.7372 57.2553 73.1389 55.7948C67.5407 54.3344 61.8815 53.6042 56.1615 53.6042C51.7803 53.6042 47.4307 54.0302 43.1127 54.8821C38.7899 55.734 34.6204 57.0118 30.6042 58.7157V131.006C34.8638 129.546 39.0941 128.451 43.2952 127.721C47.4915 126.99 51.7803 126.625 56.1615 126.625ZM103.625 134.292C108.98 131.737 114.367 129.819 119.785 128.538C125.198 127.263 130.765 126.625 136.485 126.625C140.866 126.625 145.157 126.99 149.358 127.721C153.555 128.451 157.782 129.546 162.042 131.006V58.7157C158.026 57.0118 153.859 55.734 149.541 54.8821C145.218 54.0302 140.866 53.6042 136.485 53.6042C130.765 53.6042 125.106 54.3344 119.507 55.7948C113.909 57.2553 108.615 59.4459 103.625 62.3667V134.292ZM96.3231 152C94.6193 152 93.0079 151.788 91.4891 151.365C89.9654 150.936 88.5342 150.357 87.1955 149.627C82.4491 146.828 77.4593 144.73 72.2262 143.332C66.993 141.93 61.6381 141.229 56.1615 141.229C51.0501 141.229 46.0311 141.899 41.1046 143.237C36.1733 144.576 31.4561 146.463 26.9531 148.897C24.3974 150.235 21.9342 150.174 19.5634 148.714C17.1878 147.254 16 145.124 16 142.325V54.3344C16 52.9957 16.3359 51.7178 17.0077 50.5008C17.6746 49.2838 18.6774 48.371 20.0162 47.7625C25.6144 44.8417 31.4561 42.6511 37.5412 41.1906C43.6263 39.7302 49.8331 39 56.1615 39C63.2202 39 70.128 39.9128 76.8849 41.7383C83.6369 43.5638 90.1163 46.3021 96.3231 49.9532C102.53 46.3021 109.012 43.5638 115.769 41.7383C122.521 39.9128 129.426 39 136.485 39C142.813 39 149.02 39.7302 155.105 41.1906C161.19 42.6511 167.032 44.8417 172.63 47.7625C173.969 48.371 174.974 49.2838 175.646 50.5008C176.313 51.7178 176.646 52.9957 176.646 54.3344V142.325C176.646 145.124 175.461 147.254 173.09 148.714C170.714 150.174 168.249 150.235 165.693 148.897C161.19 146.463 156.473 144.576 151.542 143.237C146.615 141.899 141.596 141.229 136.485 141.229C131.008 141.229 125.653 141.93 120.42 143.332C115.187 144.73 110.197 146.828 105.451 149.627C104.112 150.357 102.683 150.936 101.164 151.365C99.6407 151.788 98.0269 152 96.3231 152Z" fill="#F34646"/>
</svg>
