<svg width="192" height="192" viewBox="0 0 192 192" fill="none" xmlns="http://www.w3.org/2000/svg">
<g clip-path="url(#clip0_27_16)">
<path d="M96 16C51.84 16 16 51.84 16 96C16 140.16 51.84 176 96 176C140.16 176 176 140.16 176 96C176 51.84 140.16 16 96 16ZM96 160C60.64 160 32 131.36 32 96C32 60.64 60.64 32 96 32C131.36 32 160 60.64 160 96C160 131.36 131.36 160 96 160Z" fill="#F34646"/>
<path d="M60 104C66.6274 104 72 98.6274 72 92C72 85.3726 66.6274 80 60 80C53.3726 80 48 85.3726 48 92C48 98.6274 53.3726 104 60 104Z" fill="#F34646"/>
<path d="M132 104C138.627 104 144 98.6274 144 92C144 85.3726 138.627 80 132 80C125.373 80 120 85.3726 120 92C120 98.6274 125.373 104 132 104Z" fill="#F34646"/>
<path d="M72 140C78.6274 140 84 134.627 84 128C84 121.373 78.6274 116 72 116C65.3726 116 60 121.373 60 128C60 134.627 65.3726 140 72 140Z" fill="#F34646"/>
<path d="M120 140C126.627 140 132 134.627 132 128C132 121.373 126.627 116 120 116C113.373 116 108 121.373 108 128C108 134.627 113.373 140 120 140Z" fill="#F34646"/>
<path d="M120 60C120 53.36 114.64 48 108 48H84C77.36 48 72 53.36 72 60C72 66.64 77.36 72 84 72H108C114.64 72 120 66.64 120 60Z" fill="#F34646"/>
</g>
<defs>
<clipPath id="clip0_27_16">
<rect width="192" height="192" fill="white"/>
</clipPath>
</defs>
</svg>
