<svg width="192" height="192" viewBox="0 0 192 192" fill="none" xmlns="http://www.w3.org/2000/svg">
<g clip-path="url(#clip0_27_9)">
<path d="M159.04 147.76C162.88 141.6 165.04 134.4 164.56 126.48C163.52 109.28 149.84 94.72 132.8 92.88C111.04 90.48 92.6399 107.36 92.6399 128.64C92.6399 148.56 108.72 164.64 128.56 164.64C135.6 164.64 142.16 162.56 147.68 159.04L166.96 178.32C170.08 181.44 175.2 181.44 178.32 178.32C181.44 175.2 181.44 170.08 178.32 166.96L159.04 147.76ZM128.64 148.64C117.6 148.64 108.64 139.68 108.64 128.64C108.64 117.6 117.6 108.64 128.64 108.64C139.68 108.64 148.64 117.6 148.64 128.64C148.64 139.68 139.68 148.64 128.64 148.64ZM125.76 80.64C119.84 80.8 114.16 82.08 108.96 84.24L104.56 77.6L79.9199 117.68C77.0399 122.32 70.5599 122.8 67.0399 118.72L50.0799 98.96L25.5999 138.16C23.1199 142.08 17.8399 143.12 14.0799 140.4C10.7199 137.92 9.75988 133.28 11.9999 129.68L42.2399 81.28C45.1199 76.72 51.5999 76.24 55.1199 80.32L71.9999 100L97.4399 58.64C100.48 53.68 107.68 53.52 110.88 58.4L125.76 80.64ZM146.48 84.64C141.36 82.4 135.84 81.04 130.08 80.72L166.4 23.2C168.88 19.28 174.16 18.32 177.84 21.04C181.28 23.52 182.16 28.24 179.92 31.76L146.48 84.64Z" fill="#F34646"/>
</g>
<defs>
<clipPath id="clip0_27_9">
<rect width="192" height="192" fill="white"/>
</clipPath>
</defs>
</svg>
