<svg width="256" height="256" viewBox="0 0 256 256" fill="none" xmlns="http://www.w3.org/2000/svg">
<rect width="256" height="256" fill="#141414"/>
<path d="M124.59 29.4314L33 121.021M162.225 29.4314L66.5242 125.132C65.4836 126.173 65.4836 127.86 66.5242 128.9L107.438 169.814M162.225 224.601L107.438 169.814M107.438 169.814L145.686 131.565C147.365 129.886 146.176 127.016 143.802 127.016H102.109M88.953 187.799L52.1506 224.601" stroke="#FEFEFE" stroke-width="16.6527" stroke-linecap="round"/>
<path d="M221.842 116.525C227.452 116.525 232 121.073 232 126.684C232 132.294 227.452 136.841 221.842 136.841C216.232 136.841 211.684 132.294 211.683 126.684C211.683 121.073 216.231 116.525 221.842 116.525ZM221.842 69.2314C227.452 69.2314 232 73.7795 232 79.3896C232 84.9997 227.452 89.5479 221.842 89.5479C216.231 89.5478 211.684 84.9997 211.683 79.3896C211.683 73.7795 216.231 69.2315 221.842 69.2314ZM221.842 21.9375C227.452 21.9375 232 26.4855 232 32.0957C232 37.7058 227.452 42.2539 221.842 42.2539C216.231 42.2539 211.683 37.7059 211.683 32.0957C211.683 26.4855 216.231 21.9375 221.842 21.9375Z" fill="#FEFEFE"/>
</svg>
