<svg width="216" height="173" viewBox="0 0 216 173" fill="none" xmlns="http://www.w3.org/2000/svg">
<path fill-rule="evenodd" clip-rule="evenodd" d="M107.793 170.826C102.097 171.904 96.2085 172.469 90.1815 172.469C40.3756 172.469 0 133.861 0 86.2347C0 38.6086 40.3756 0 90.1815 0C96.2085 0 102.097 0.56536 107.793 1.64364C113.489 0.56536 119.378 0 125.405 0C175.211 0 215.587 38.6086 215.587 86.2347C215.587 133.861 175.211 172.469 125.405 172.469C119.378 172.469 113.489 171.904 107.793 170.826ZM121.289 167.201C155.768 155.085 180.363 123.407 180.363 86.2347C180.363 49.0629 155.768 17.3843 121.289 5.26796C122.653 5.20562 124.025 5.17408 125.405 5.17408C172.223 5.17408 210.176 41.4662 210.176 86.2347C210.176 131.003 172.223 167.295 125.405 167.295C124.025 167.295 122.653 167.264 121.289 167.201ZM94.2038 167.169C92.8709 167.228 91.5299 167.258 90.1815 167.258C43.3854 167.258 5.44969 130.983 5.44969 86.2347C5.44969 41.4867 43.3854 5.21118 90.1815 5.21118C91.5299 5.21118 92.8709 5.2413 94.2039 5.30087C59.7748 17.4416 35.2238 49.0965 35.2238 86.2347C35.2238 123.373 59.7748 155.028 94.2038 167.169ZM107.7 165.525C69.3813 157.739 40.6347 125.197 40.6347 86.2347C40.6347 47.2726 69.3813 14.7308 107.7 6.94489C146.09 14.6619 174.913 47.2296 174.913 86.2347C174.913 125.24 146.09 157.808 107.7 165.525Z" fill="#CF0C2E"/>
</svg>
