<svg id="katman_1" data-name="katman 1" xmlns="http://www.w3.org/2000/svg" viewBox="0 0 1000 1000"><defs><style>.cls-1{fill:#fff;}.cls-2,.cls-3{fill:#e31f26;}.cls-3{fill-rule:evenodd;}.cls-4{opacity:0.5;}.cls-5{fill:none;}</style></defs><circle class="cls-1" cx="500" cy="500" r="486.02"/><path class="cls-2" d="M823.79,823H807.15c-3.17,0-4.6-4.31-2.1-6.45l4.77-4.15A22,22,0,0,1,824.19,807h16.63c3.2,0,4.63,4.31,2.12,6.47l-4.77,4.13A22,22,0,0,1,823.79,823"/><path class="cls-2" d="M845.55,799.63l-16.62,1.16c-3.14.19-4.87-4-2.56-6.31l4.51-4.45a21.73,21.73,0,0,1,13.94-6.4l16.6-1.17c3.18-.24,4.9,4,2.57,6.29l-4.48,4.45a21.94,21.94,0,0,1-14,6.43"/><path class="cls-2" d="M865.64,774.8l-16.49,2.33c-3.16.44-5.16-3.65-3-6.11l4.14-4.75a21.77,21.77,0,0,1,13.47-7.36l16.49-2.34c3.16-.45,5.15,3.62,3,6.08l-4.14,4.77a21.93,21.93,0,0,1-13.48,7.38"/><path class="cls-2" d="M883.92,748.67l-16.3,3.4c-3.11.69-5.38-3.23-3.4-5.84l3.81-5a21.89,21.89,0,0,1,12.92-8.3l16.28-3.45c3.12-.67,5.38,3.26,3.41,5.86l-3.82,5a22.14,22.14,0,0,1-12.9,8.33"/><path class="cls-2" d="M900.31,721.27l-16,4.59c-3.07.86-5.61-2.88-3.84-5.65l3.48-5.28a22,22,0,0,1,12.29-9.18l16-4.57c3.09-.89,5.63,2.85,3.84,5.62l-3.45,5.28a21.94,21.94,0,0,1-12.34,9.19"/><path class="cls-2" d="M914.77,692.82l-15.6,5.66c-3,1.12-5.8-2.45-4.21-5.33l3.06-5.5a22,22,0,0,1,11.66-10L925.3,672c3-1.11,5.81,2.48,4.23,5.33l-3.09,5.52a21.91,21.91,0,0,1-11.67,10"/><path class="cls-2" d="M927.23,663.4,912,670.19c-2.9,1.29-5.94-2.07-4.57-5l2.71-5.7a21.79,21.79,0,0,1,10.92-10.82l15.19-6.77c2.91-1.3,6,2.08,4.57,5l-2.7,5.72a21.93,21.93,0,0,1-10.91,10.78"/><path class="cls-2" d="M937.6,633.24,922.89,641c-2.81,1.52-6.08-1.63-4.89-4.67l2.27-5.91a22.18,22.18,0,0,1,10.15-11.55l14.69-7.81c2.79-1.51,6.08,1.63,4.89,4.7l-2.26,5.89a22,22,0,0,1-10.14,11.56"/><path class="cls-2" d="M945.84,602.4l-14.12,8.83c-2.71,1.68-6.17-1.24-5.23-4.37l1.87-6a21.93,21.93,0,0,1,9.33-12.22l14.08-8.81c2.72-1.69,6.2,1.2,5.22,4.34l-1.86,6a21.89,21.89,0,0,1-9.29,12.24"/><path class="cls-2" d="M951.88,571.05l-13.46,9.78c-2.58,1.87-6.24-.77-5.5-4l1.42-6.16a21.94,21.94,0,0,1,8.45-12.83l13.46-9.78c2.58-1.89,6.24.77,5.51,4l-1.46,6.16a21.83,21.83,0,0,1-8.42,12.82"/><path class="cls-2" d="M955.76,539.39,943,550.07c-2.47,2.06-6.33-.35-5.79-3.58l1-6.21a21.93,21.93,0,0,1,7.52-13.43l12.74-10.67c2.47-2,6.31.33,5.76,3.56l-1,6.24a22.08,22.08,0,0,1-7.52,13.41"/><path class="cls-2" d="M957.39,507.5l-12,11.56c-2.31,2.22-6.31.11-6-3.17l.57-6.28a21.84,21.84,0,0,1,6.57-13.92l12-11.54c2.3-2.22,6.33-.09,6,3.19l-.56,6.27a21.66,21.66,0,0,1-6.54,13.89"/><path class="cls-2" d="M956.8,475.57l-11.14,12.36c-2.15,2.39-6.28.56-6.21-2.72l.11-6.32a22.17,22.17,0,0,1,5.58-14.34l11.12-12.34c2.14-2.37,6.3-.54,6.23,2.75l-.12,6.31a22,22,0,0,1-5.57,14.3"/><path class="cls-2" d="M954,443.81l-10.24,13.07c-2,2.56-6.23,1-6.4-2.27l-.33-6.34a22,22,0,0,1,4.58-14.65l10.24-13.09c2-2.53,6.21-1,6.41,2.29l.31,6.31A22.11,22.11,0,0,1,954,443.81"/><path class="cls-2" d="M949,412.29l-9.31,13.77c-1.79,2.66-6.15,1.41-6.56-1.84l-.75-6.27a21.89,21.89,0,0,1,3.51-15l9.33-13.77c1.78-2.67,6.13-1.42,6.53,1.85l.77,6.27a22.08,22.08,0,0,1-3.52,15"/><path class="cls-2" d="M941.72,381.21l-8.29,14.37c-1.6,2.76-6,1.84-6.67-1.4L925.57,388a22.06,22.06,0,0,1,2.5-15.17l8.3-14.37c1.57-2.78,6-1.85,6.65,1.39l1.19,6.2a22.06,22.06,0,0,1-2.49,15.17"/><path class="cls-2" d="M932.37,350.67l-7.29,15c-1.38,2.82-5.91,2.21-6.71-.94l-1.63-6.1a22,22,0,0,1,1.38-15.32l7.31-14.94c1.38-2.86,5.91-2.22,6.74.91l1.61,6.12a22,22,0,0,1-1.41,15.29"/><path class="cls-2" d="M920.9,320.9l-6.23,15.42c-1.21,2.94-5.72,2.65-6.77-.48l-2.06-6a21.88,21.88,0,0,1,.32-15.36l6.24-15.41c1.21-3,5.75-2.66,6.77.46l2.05,6a21.93,21.93,0,0,1-.32,15.36"/><path class="cls-2" d="M907.38,292l-5.17,15.84c-1,3-5.5,3-6.78,0L893,302a21.88,21.88,0,0,1-.74-15.33l5.13-15.84c1-3,5.52-3.05,6.8,0l2.46,5.8a21.89,21.89,0,0,1,.74,15.33"/><path class="cls-2" d="M891.86,264.09l-4,16.13c-.75,3.12-5.29,3.44-6.76.51l-2.88-5.65a22.06,22.06,0,0,1-1.8-15.25l4-16.14c.77-3.09,5.3-3.41,6.79-.48l2.85,5.63a22,22,0,0,1,1.8,15.25"/><path class="cls-2" d="M874.44,237.34l-2.88,16.37c-.55,3.14-5,3.79-6.75,1l-3.23-5.43a21.88,21.88,0,0,1-2.85-15.09l2.88-16.38c.56-3.14,5-3.78,6.72-1l3.24,5.43a22.05,22.05,0,0,1,2.87,15.11"/><path class="cls-2" d="M855.19,211.88l-1.74,16.54c-.3,3.16-4.75,4.12-6.63,1.41l-3.61-5.17a21.83,21.83,0,0,1-3.91-14.85L841,193.28c.34-3.19,4.78-4.14,6.62-1.45l3.63,5.2a21.7,21.7,0,0,1,3.9,14.85"/><path class="cls-2" d="M834.21,187.79l-.56,16.62c-.11,3.18-4.48,4.44-6.53,1.9l-3.93-4.91a21.8,21.8,0,0,1-5-14.55l.57-16.63c.11-3.19,4.47-4.44,6.53-1.87l4,4.89a21.78,21.78,0,0,1,4.91,14.55"/><path class="cls-2" d="M811.63,165.24l.56,16.65c.13,3.19-4.13,4.73-6.36,2.34l-4.3-4.63a22,22,0,0,1-6-14.17L795,148.79c-.09-3.18,4.16-4.73,6.42-2.35l4.27,4.63a22.11,22.11,0,0,1,6,14.17"/><path class="cls-2" d="M787.52,144.34l1.74,16.54c.32,3.16-3.8,5.05-6.2,2.79l-4.62-4.32a22.11,22.11,0,0,1-6.93-13.73l-1.72-16.53c-.34-3.17,3.81-5,6.19-2.79l4.62,4.34a21.88,21.88,0,0,1,6.92,13.7"/><path class="cls-2" d="M762,125.16l2.87,16.38c.55,3.16-3.45,5.28-6,3.21l-4.89-4a22,22,0,0,1-7.84-13.21l-2.88-16.38c-.56-3.16,3.44-5.29,6-3.22l4.92,4A22.14,22.14,0,0,1,762,125.16"/><path class="cls-2" d="M735.19,107.81l4,16.14c.79,3.09-3,5.52-5.76,3.62l-5.15-3.65a21.92,21.92,0,0,1-8.76-12.61l-4-16.13c-.76-3.12,3.08-5.51,5.77-3.64l5.16,3.64a22.09,22.09,0,0,1,8.75,12.63"/><path class="cls-2" d="M707.25,92.35l5.15,15.82c1,3-2.69,5.72-5.51,4l-5.39-3.27a21.9,21.9,0,0,1-9.6-12l-5.15-15.81c-1-3,2.67-5.72,5.49-4l5.39,3.28a21.87,21.87,0,0,1,9.62,12"/><path class="cls-2" d="M678.3,78.92l6.24,15.41c1.22,3-2.27,5.88-5.21,4.39l-5.59-2.88A22,22,0,0,1,663.3,84.55l-6.23-15.42c-1.19-3,2.26-5.88,5.18-4.39l5.63,2.89A21.84,21.84,0,0,1,678.3,78.92"/><path class="cls-2" d="M648.47,67.5l7.3,15c1.4,2.86-1.85,6-4.86,4.75l-5.82-2.52A21.83,21.83,0,0,1,633.9,74.15l-7.29-14.94c-1.39-2.85,1.85-6,4.87-4.73l5.8,2.49A21.8,21.8,0,0,1,648.47,67.5"/><path class="cls-2" d="M617.94,58.2l8.33,14.39c1.59,2.77-1.42,6.16-4.54,5.07l-6-2.07a21.85,21.85,0,0,1-11.89-9.71l-8.32-14.39c-1.62-2.79,1.43-6.15,4.52-5.08l6,2.08a21.93,21.93,0,0,1,11.91,9.71"/><path class="cls-2" d="M586.81,51l9.33,13.79c1.78,2.67-1,6.25-4.18,5.38l-6.09-1.64a22.16,22.16,0,0,1-12.56-8.86L564,45.89c-1.78-2.62,1-6.21,4.16-5.37l6.1,1.68A21.92,21.92,0,0,1,586.81,51"/><path class="cls-2" d="M555.27,46.09l10.25,13.09c2,2.52-.57,6.29-3.79,5.64l-6.17-1.2a22,22,0,0,1-13.16-8l-10.22-13.1c-2-2.49.55-6.25,3.77-5.64l6.17,1.23a21.8,21.8,0,0,1,13.15,8"/><path class="cls-2" d="M523.49,43.33l11.12,12.36c2.13,2.37-.12,6.31-3.4,5.89L525,60.83a22.19,22.19,0,0,1-13.69-7.06L500.15,41.41c-2.11-2.38.12-6.3,3.4-5.89l6.26.78a22,22,0,0,1,13.68,7"/><path class="cls-2" d="M491.55,42.81l12,11.58c2.28,2.2.31,6.27-3,6.1l-6.29-.37a21.9,21.9,0,0,1-14.12-6l-12-11.56c-2.3-2.21-.32-6.31,2.95-6.12l6.3.36a21.89,21.89,0,0,1,14.14,6.05"/><path class="cls-2" d="M459.67,44.52,472.4,55.23c2.46,2,.76,6.24-2.52,6.29l-6.31.08a21.77,21.77,0,0,1-14.51-5.05L436.32,45.86c-2.46-2-.77-6.26,2.51-6.3l6.32-.09a22,22,0,0,1,14.52,5.05"/><path class="cls-2" d="M428,48.46l13.47,9.76c2.56,1.86,1.18,6.18-2.08,6.47l-6.3.52a21.94,21.94,0,0,1-14.84-4l-13.45-9.78c-2.58-1.89-1.21-6.2,2.08-6.49l6.29-.53A21.94,21.94,0,0,1,428,48.46"/><path class="cls-2" d="M396.64,54.56l14.11,8.79c2.69,1.71,1.64,6.11-1.61,6.63l-6.26,1a21.77,21.77,0,0,1-15.06-3l-14.11-8.8c-2.72-1.7-1.62-6.09,1.61-6.62l6.24-1a21.85,21.85,0,0,1,15.08,3"/><path class="cls-2" d="M365.82,62.87l14.7,7.78c2.79,1.54,2,6-1.17,6.71l-6.16,1.42a21.85,21.85,0,0,1-15.23-2L343.24,69c-2.81-1.48-2-6,1.17-6.67l6.15-1.45a22,22,0,0,1,15.26,2"/><path class="cls-2" d="M335.62,73.29,350.83,80c2.9,1.33,2.47,5.82-.67,6.79l-6.08,1.83a22,22,0,0,1-15.34-.86L313.55,81c-2.92-1.32-2.46-5.82.69-6.78l6-1.83a21.93,21.93,0,0,1,15.34.88"/><path class="cls-2" d="M306.25,85.77l15.64,5.69c3,1.1,2.86,5.64-.22,6.8l-5.9,2.24a21.9,21.9,0,0,1-15.38.21L284.77,95c-3-1.1-2.84-5.64.22-6.81L290.9,86a22,22,0,0,1,15.35-.21"/><path class="cls-2" d="M277.83,100.3l16,4.59c3.07.87,3.26,5.42.27,6.8l-5.73,2.63A22,22,0,0,1,273,115.6L257,111c-3-.89-3.23-5.42-.24-6.79l5.74-2.65a21.85,21.85,0,0,1,15.31-1.28"/><path class="cls-2" d="M250.46,116.76l16.29,3.47c3.11.67,3.61,5.15.72,6.75L262,130a22,22,0,0,1-15.19,2.33l-16.27-3.46c-3.12-.67-3.63-5.17-.75-6.76l5.55-3.05a22.06,22.06,0,0,1,15.17-2.34"/><path class="cls-2" d="M224.33,135.11l16.47,2.31c3.16.46,4,4.9,1.21,6.69l-5.32,3.42a21.77,21.77,0,0,1-15,3.38l-16.5-2.29c-3.16-.46-3.94-4.92-1.2-6.68l5.29-3.47a22.2,22.2,0,0,1,15-3.36"/><path class="cls-2" d="M199.54,155.23l16.6,1.15c3.18.21,4.3,4.62,1.65,6.59l-5.06,3.76a21.82,21.82,0,0,1-14.7,4.44L181.44,170c-3.19-.23-4.31-4.62-1.67-6.59l5-3.79a21.77,21.77,0,0,1,14.72-4.41"/><path class="cls-2" d="M176.21,177h16.65c3.17,0,4.6,4.32,2.11,6.48l-4.77,4.13A22,22,0,0,1,175.83,193H159.2c-3.2,0-4.63-4.32-2.13-6.45l4.77-4.13A22,22,0,0,1,176.21,177"/><path class="cls-2" d="M154.47,200.37l16.6-1.15c3.17-.24,4.89,4,2.57,6.29L169.13,210a21.88,21.88,0,0,1-13.93,6.42l-16.6,1.16c-3.19.22-4.91-4-2.57-6.29l4.47-4.45a22,22,0,0,1,14-6.43"/><path class="cls-2" d="M134.4,225.18l16.49-2.3c3.14-.44,5.15,3.64,3,6.09l-4.15,4.76a21.84,21.84,0,0,1-13.47,7.37l-16.48,2.34c-3.15.44-5.15-3.63-3-6.12l4.16-4.74a22,22,0,0,1,13.48-7.4"/><path class="cls-2" d="M116.11,251.35l16.27-3.45c3.13-.66,5.41,3.24,3.41,5.86l-3.8,5.05a22,22,0,0,1-12.94,8.29l-16.27,3.45c-3.12.68-5.38-3.25-3.41-5.85l3.83-5a21.83,21.83,0,0,1,12.91-8.32"/><path class="cls-2" d="M99.68,278.73l16-4.6c3.06-.88,5.61,2.9,3.83,5.62L116,285a21.85,21.85,0,0,1-12.32,9.22l-16,4.59c-3,.88-5.59-2.89-3.82-5.64l3.46-5.29a22,22,0,0,1,12.31-9.18"/><path class="cls-2" d="M85.24,307.17l15.64-5.67c3-1.1,5.78,2.47,4.19,5.34L102,312.36a21.7,21.7,0,0,1-11.66,10l-15.63,5.7c-3,1.09-5.81-2.46-4.21-5.34l3.09-5.52a22,22,0,0,1,11.66-10"/><path class="cls-2" d="M72.79,336.56,88,329.81c2.91-1.3,6,2.06,4.57,5.05l-2.69,5.71a22,22,0,0,1-10.92,10.81l-15.21,6.77c-2.9,1.28-5.95-2.08-4.54-5l2.67-5.72a22.07,22.07,0,0,1,10.93-10.83"/><path class="cls-2" d="M62.41,366.76,77.12,359c2.81-1.49,6.1,1.65,4.91,4.7l-2.29,5.89A21.9,21.9,0,0,1,69.6,381.08L54.91,388.9c-2.81,1.51-6.09-1.63-4.88-4.68l2.24-5.91a22.25,22.25,0,0,1,10.14-11.55"/><path class="cls-2" d="M54.19,397.59l14.11-8.81c2.7-1.68,6.18,1.23,5.22,4.35l-1.85,6.05a22.19,22.19,0,0,1-9.31,12.22l-14.14,8.81c-2.68,1.71-6.17-1.2-5.19-4.36l1.84-6a22.06,22.06,0,0,1,9.32-12.25"/><path class="cls-2" d="M48.12,428.93l13.48-9.8c2.57-1.85,6.26.8,5.5,4l-1.44,6.14a22.07,22.07,0,0,1-8.43,12.87l-13.44,9.76c-2.59,1.89-6.27-.79-5.52-4l1.43-6.16a22.09,22.09,0,0,1,8.42-12.86"/><path class="cls-2" d="M44.25,460.61,57,449.92c2.44-2,6.32.37,5.78,3.59l-1,6.22a21.91,21.91,0,0,1-7.5,13.43L41.52,483.83c-2.43,2.05-6.3-.33-5.76-3.56l1-6.25a22.08,22.08,0,0,1,7.52-13.41"/><path class="cls-2" d="M42.64,492.51l12-11.59c2.3-2.19,6.3-.06,6,3.2l-.55,6.29a22,22,0,0,1-6.57,13.89l-12,11.56c-2.28,2.2-6.3.09-6-3.17l.58-6.31a21.68,21.68,0,0,1,6.56-13.87"/><path class="cls-2" d="M43.22,524.42l11.13-12.37c2.14-2.34,6.28-.53,6.22,2.73l-.15,6.34a21.77,21.77,0,0,1-5.57,14.31L43.73,547.78c-2.13,2.39-6.28.53-6.21-2.75l.13-6.31a21.75,21.75,0,0,1,5.57-14.3"/><path class="cls-2" d="M46,556.2l10.24-13.11c2-2.49,6.21-1,6.39,2.29l.33,6.34a22,22,0,0,1-4.58,14.66l-10.25,13.1c-1.94,2.51-6.23,1-6.39-2.32l-.32-6.3A21.89,21.89,0,0,1,46,556.2"/><path class="cls-2" d="M51.08,587.72,60.37,574c1.77-2.68,6.15-1.44,6.53,1.82l.77,6.29A22,22,0,0,1,64.15,597l-9.33,13.8c-1.77,2.65-6.16,1.4-6.53-1.86l-.75-6.26a21.92,21.92,0,0,1,3.54-14.95"/><path class="cls-2" d="M58.27,618.82l8.32-14.42c1.6-2.75,6-1.81,6.66,1.41l1.2,6.19A21.84,21.84,0,0,1,72,627.15l-8.3,14.42c-1.61,2.76-6,1.83-6.66-1.39L55.8,634a22.1,22.1,0,0,1,2.47-15.15"/><path class="cls-2" d="M67.65,649.32l7.3-15c1.4-2.84,5.88-2.23,6.71.92l1.61,6.12a21.83,21.83,0,0,1-1.39,15.31l-7.3,14.95c-1.38,2.86-5.9,2.22-6.74-.93l-1.61-6.1a21.82,21.82,0,0,1,1.42-15.31"/><path class="cls-2" d="M79.13,679.12l6.21-15.43c1.22-3,5.74-2.67,6.81.46l2,6a21.93,21.93,0,0,1-.33,15.38l-6.24,15.39c-1.18,3-5.72,2.67-6.76-.45l-2.06-5.95a22,22,0,0,1,.34-15.36"/><path class="cls-2" d="M92.64,708l5.14-15.79c1-3.07,5.51-3.07,6.79,0L107,698a22,22,0,0,1,.74,15.35l-5.14,15.81c-1,3-5.54,3-6.8,0l-2.44-5.84A21.93,21.93,0,0,1,92.64,708"/><path class="cls-2" d="M108.14,735.91l4-16.13c.77-3.12,5.32-3.44,6.79-.5l2.87,5.62a22.25,22.25,0,0,1,1.79,15.27l-4,16.15c-.77,3.08-5.28,3.4-6.78.48L110,751.16a22.06,22.06,0,0,1-1.81-15.25"/><path class="cls-2" d="M125.55,762.65l2.89-16.37c.56-3.14,5-3.79,6.75-1l3.24,5.44a22,22,0,0,1,2.86,15.09l-2.88,16.39c-.57,3.15-5,3.78-6.75,1l-3.23-5.42a22.22,22.22,0,0,1-2.88-15.11"/><path class="cls-2" d="M144.79,788.13l1.76-16.55c.32-3.15,4.75-4.13,6.65-1.42l3.6,5.18a21.86,21.86,0,0,1,3.91,14.85L159,806.74c-.32,3.15-4.76,4.13-6.63,1.43L148.71,803a22.17,22.17,0,0,1-3.92-14.85"/><path class="cls-2" d="M165.78,812.21l.6-16.62c.1-3.17,4.45-4.45,6.51-1.89l4,4.91a21.9,21.9,0,0,1,4.92,14.55l-.58,16.62c-.09,3.19-4.46,4.44-6.52,1.88l-4-4.92a21.93,21.93,0,0,1-4.95-14.53"/><path class="cls-2" d="M188.38,834.76l-.58-16.64c-.08-3.19,4.15-4.74,6.38-2.34l4.31,4.63a22,22,0,0,1,5.94,14.16l.57,16.61c.11,3.22-4.14,4.77-6.39,2.35l-4.28-4.62a22,22,0,0,1-6-14.15"/><path class="cls-2" d="M212.51,855.66l-1.74-16.55c-.33-3.15,3.78-5,6.19-2.78l4.62,4.32a22,22,0,0,1,6.92,13.73l1.74,16.55c.33,3.15-3.81,5-6.19,2.78l-4.63-4.35a21.79,21.79,0,0,1-6.91-13.7"/><path class="cls-2" d="M238,874.83l-2.9-16.37c-.53-3.14,3.44-5.29,6-3.21l4.9,4a21.92,21.92,0,0,1,7.82,13.22l2.9,16.37c.55,3.14-3.44,5.26-6,3.21l-4.92-4A21.92,21.92,0,0,1,238,874.83"/><path class="cls-2" d="M264.82,892.19l-4-16.13c-.78-3.08,3.08-5.52,5.76-3.61l5.16,3.63a21.9,21.9,0,0,1,8.76,12.63l4,16.13c.76,3.1-3.08,5.5-5.77,3.58l-5.17-3.58a22,22,0,0,1-8.75-12.65"/><path class="cls-2" d="M292.77,907.64l-5.15-15.83c-1-3,2.66-5.7,5.48-4l5.42,3.24a22.19,22.19,0,0,1,9.6,12l5.14,15.86c1,3-2.68,5.68-5.5,4l-5.39-3.29a21.94,21.94,0,0,1-9.6-12"/><path class="cls-2" d="M321.71,921.08l-6.23-15.39c-1.2-3,2.27-5.89,5.2-4.41l5.6,2.88a21.81,21.81,0,0,1,10.44,11.3L343,930.87c1.22,3-2.25,5.89-5.18,4.39l-5.63-2.88a21.88,21.88,0,0,1-10.43-11.3"/><path class="cls-2" d="M351.54,932.49l-7.28-14.93c-1.41-2.87,1.82-6,4.86-4.75l5.8,2.49a22.12,22.12,0,0,1,11.21,10.53l7.28,14.95c1.38,2.87-1.85,6-4.88,4.74l-5.8-2.5a21.91,21.91,0,0,1-11.19-10.53"/><path class="cls-2" d="M382.09,941.79l-8.32-14.39c-1.61-2.78,1.4-6.14,4.54-5.06l5.94,2a22,22,0,0,1,11.91,9.73l8.31,14.39c1.61,2.78-1.42,6.16-4.54,5.07L394,951.52a21.82,21.82,0,0,1-11.91-9.73"/><path class="cls-2" d="M413.19,948.93l-9.31-13.75c-1.79-2.67,1-6.26,4.18-5.39l6.07,1.64a22.06,22.06,0,0,1,12.57,8.9l9.3,13.78c1.78,2.63-1,6.21-4.17,5.36l-6.1-1.66a21.84,21.84,0,0,1-12.54-8.88"/><path class="cls-2" d="M444.73,953.9l-10.22-13.07c-2-2.53.55-6.31,3.76-5.65l6.19,1.21a22,22,0,0,1,13.15,8l10.24,13.09c1.94,2.52-.56,6.28-3.79,5.67l-6.18-1.23a21.81,21.81,0,0,1-13.15-8"/><path class="cls-2" d="M476.53,956.67l-11.12-12.35c-2.14-2.39.12-6.33,3.38-5.89l6.25.75a21.86,21.86,0,0,1,13.67,7.06l11.14,12.35c2.11,2.38-.11,6.31-3.4,5.89l-6.25-.78a22.13,22.13,0,0,1-13.67-7"/><path class="cls-2" d="M508.47,957.2l-12-11.59c-2.3-2.19-.35-6.27,3-6.09l6.29.36a22,22,0,0,1,14.14,6l12,11.57c2.3,2.2.35,6.29-3,6.11l-6.3-.35a22,22,0,0,1-14.13-6"/><path class="cls-2" d="M540.34,955.49l-12.72-10.72c-2.46-2-.78-6.23,2.5-6.28l6.31-.09A21.68,21.68,0,0,1,551,943.47l12.75,10.67c2.44,2,.78,6.26-2.54,6.31l-6.3.08a22,22,0,0,1-14.52-5"/><path class="cls-2" d="M572.05,951.57l-13.49-9.78c-2.56-1.87-1.17-6.2,2.1-6.47l6.3-.53a21.75,21.75,0,0,1,14.81,4.05l13.49,9.77c2.56,1.87,1.19,6.17-2.09,6.44l-6.3.55a22.07,22.07,0,0,1-14.82-4"/><path class="cls-2" d="M603.37,945.44l-14.1-8.85c-2.71-1.65-1.64-6.07,1.61-6.56l6.25-1a22,22,0,0,1,15.09,3l14.1,8.79c2.71,1.7,1.62,6.1-1.62,6.61l-6.25,1a22.22,22.22,0,0,1-15.08-3"/><path class="cls-2" d="M634.23,937.13l-14.71-7.79c-2.82-1.54-2-6,1.16-6.71l6.15-1.41a22.14,22.14,0,0,1,15.27,1.94L656.77,931c2.83,1.51,2.07,6-1.15,6.69l-6.17,1.41a21.71,21.71,0,0,1-15.22-1.94"/><path class="cls-2" d="M664.39,926.73l-15.2-6.79c-2.9-1.29-2.48-5.79.67-6.75l6.07-1.82a22.08,22.08,0,0,1,15.33.86L686.45,919c2.92,1.33,2.47,5.83-.67,6.79l-6,1.82a22.06,22.06,0,0,1-15.35-.86"/><path class="cls-2" d="M693.77,914.23l-15.63-5.71c-3-1.07-2.85-5.6.18-6.79l5.93-2.24a22,22,0,0,1,15.36-.19L715.24,905c3,1.09,2.86,5.66-.18,6.82L709.13,914a22,22,0,0,1-15.36.21"/><path class="cls-2" d="M722.2,899.7l-16-4.59c-3.05-.87-3.24-5.41-.28-6.82l5.75-2.62A22,22,0,0,1,727,884.4L743,889c3,.9,3.23,5.42.25,6.8l-5.74,2.64a21.79,21.79,0,0,1-15.31,1.28"/><path class="cls-2" d="M749.54,883.22l-16.27-3.44c-3.14-.68-3.62-5.17-.72-6.77l5.52-3a21.88,21.88,0,0,1,15.2-2.32l16.27,3.45c3.13.67,3.61,5.16.74,6.77l-5.56,3a22,22,0,0,1-15.18,2.31"/><path class="cls-2" d="M775.69,864.91l-16.5-2.34c-3.17-.43-4-4.89-1.2-6.67l5.32-3.42a21.92,21.92,0,0,1,15-3.41l16.49,2.32c3.15.45,4,4.91,1.21,6.67l-5.31,3.44a21.85,21.85,0,0,1-15,3.41"/><path class="cls-2" d="M800.46,844.79l-16.59-1.16c-3.17-.24-4.29-4.6-1.64-6.6l5-3.79a21.92,21.92,0,0,1,14.7-4.4l16.6,1.13c3.2.25,4.31,4.63,1.66,6.6l-5.07,3.81a22,22,0,0,1-14.71,4.41"/><polygon class="cls-3" points="460.76 133.47 485.06 115.99 475.66 87.32 499.79 105.03 524.17 87.23 514.78 115.65 539.24 133.33 509.3 133.19 500.05 161.91 490.94 133.4 460.76 133.47"/><polygon class="cls-3" points="323.49 176.39 339.24 150.94 319.59 128.05 348.66 135.16 364.36 109.4 366.57 139.25 395.93 146.22 368.23 157.55 370.66 187.62 351.34 164.77 323.49 176.39"/><polygon class="cls-3" points="213.08 268.58 217.9 239.03 190.98 225.4 220.57 220.85 225.21 191.04 238.68 217.77 268.46 212.98 247.2 234.05 260.97 260.89 234.36 247.18 213.08 268.58"/><polygon class="cls-3" points="146.35 395.99 139.5 366.85 109.42 364.56 135.01 349.04 127.89 319.71 150.56 339.26 176.24 323.44 164.66 351.03 187.66 370.56 157.83 368.08 146.35 395.99"/><polygon class="cls-3" points="133.47 539.24 115.98 514.94 87.32 524.34 105.02 500.2 87.23 475.83 115.65 485.23 133.32 460.76 133.19 490.7 161.9 499.95 133.4 509.07 133.47 539.24"/><polygon class="cls-3" points="176.39 676.52 150.93 660.76 128.04 680.41 135.17 651.34 109.4 635.64 139.25 633.43 146.22 604.08 157.54 631.78 187.62 629.33 164.77 648.68 176.39 676.52"/><polygon class="cls-3" points="268.57 786.93 239.03 782.11 225.4 809.03 220.85 779.44 191.03 774.8 217.77 761.32 212.98 731.54 234.04 752.81 260.89 739.05 247.18 765.64 268.57 786.93"/><polygon class="cls-3" points="395.98 853.64 366.85 860.49 364.56 890.59 349.04 864.99 319.71 872.11 339.26 849.45 323.42 823.75 351.03 835.34 370.56 812.34 368.08 842.17 395.98 853.64"/><polygon class="cls-3" points="539.24 866.53 514.94 884.02 524.34 912.68 500.2 894.98 475.84 912.77 485.22 884.35 460.76 866.69 490.69 866.81 499.95 838.11 509.06 866.61 539.24 866.53"/><polygon class="cls-3" points="676.52 823.62 660.76 849.07 680.42 871.95 651.34 864.83 635.64 890.61 633.43 860.75 604.08 853.79 631.78 842.46 629.34 812.39 648.67 835.24 676.52 823.62"/><polygon class="cls-3" points="786.93 731.43 782.11 760.97 809.02 774.61 779.44 779.15 774.8 808.97 761.32 782.24 731.54 787.02 752.81 765.96 739.03 739.11 765.64 752.83 786.93 731.43"/><polygon class="cls-3" points="853.64 604.01 860.5 633.16 890.59 635.44 865 650.97 872.12 680.28 849.45 660.75 823.76 676.57 835.33 648.98 812.34 629.43 842.17 631.92 853.64 604.01"/><polygon class="cls-3" points="866.53 460.77 884.01 485.07 912.68 475.66 894.98 499.8 912.79 524.16 884.35 514.78 866.68 539.24 866.82 509.31 838.1 500.06 866.61 490.94 866.53 460.77"/><polygon class="cls-3" points="823.62 323.48 849.06 339.25 871.96 319.59 864.84 348.67 890.61 364.37 860.76 366.58 853.79 395.93 842.46 368.23 812.38 370.66 835.24 351.33 823.62 323.48"/><polygon class="cls-3" points="731.43 213.09 760.98 217.9 774.6 190.98 779.15 220.57 808.97 225.21 782.24 238.68 787.02 268.47 765.96 247.2 739.11 260.97 752.82 234.36 731.43 213.09"/><polygon class="cls-3" points="604.01 146.36 633.15 139.51 635.45 109.42 650.97 135.01 680.29 127.89 660.74 150.56 676.57 176.25 648.98 164.67 629.43 187.66 631.92 157.84 604.01 146.36"/><path class="cls-2" d="M500,188.53c-171.75,0-311.48,139.72-311.48,311.47S328.27,811.44,500,811.44,811.49,671.74,811.49,500,671.77,188.53,500,188.53m0,630.05c-175.69,0-318.6-142.92-318.6-318.58S324.33,181.39,500,181.39,818.61,324.32,818.61,500,675.69,818.58,500,818.58"/><polygon class="cls-2" points="457.41 780.67 467.63 782.4 466.4 789.63 437.13 784.65 438.37 777.42 448.77 779.18 454 748.36 462.65 749.82 457.41 780.67"/><path class="cls-2" d="M419.25,786.19a3.89,3.89,0,0,1-5,2.55,3.92,3.92,0,1,1,5-2.55m-11.35-3.65a3.87,3.87,0,1,1-2.53-4.89,3.84,3.84,0,0,1,2.53,4.89m10.88-2.94,6.78-21.17c2-6.34.65-10.33-3.59-11.7s-7.75.91-9.83,7.39l-6.79,21.17-8.28-2.67,6.6-20.61c3.64-11.35,11.1-14.92,20.7-11.84,9.27,3,13.08,9.85,9.32,21.59l-6.56,20.51Z"/><path class="cls-2" d="M384.5,748.3l-3.09-1.51c-3.92-1.92-7.19-1.1-8.67,1.94s-.19,5.84,3.39,7.66a22.59,22.59,0,0,0,3.68,1.48ZM385,767a74.5,74.5,0,0,1-10.8-4.39c-5.15-2.52-8.37-5-9.88-8.22a9.81,9.81,0,0,1,.37-8.83A10.25,10.25,0,0,1,375,740l.08-.14c-1.93-2.18-2.15-5.14-1.46-8.76.84-4.45,2-9.5,2-11.17l8,3.94c.08,1.25-.48,4.5-1.53,9.27-1.21,4.76-.3,6.68,2.87,8.3l2.37,1.15L394,729l7.76,3.81Z"/><path class="cls-2" d="M349.25,749.18l-7.19-4.85,9.56-14.18-.15-.08c-1.53.75-3.07,1.38-4.56,2l-14.46,5.75-8.89-6,19.81-6.51,1.23-25.94,8.48,5.71-1.49,19.13,5-1.53,7.07-10.46,7.18,4.85Z"/><path class="cls-2" d="M309.92,720.1l24.84-29.59,6.73,5.63-24.85,29.59Zm2.43,10a4,4,0,0,1-5.63.45,3.85,3.85,0,0,1-.39-5.51,3.89,3.89,0,0,1,5.46-.51,4,4,0,0,1,.56,5.57"/><path class="cls-2" d="M322.31,678.89l-11.38,11L303,714.56l-6.93-7.17L300,698.1c1.19-2.84,2.11-4.84,3.25-7.3l-.1-.08c-2.31,1-4.56,1.95-7.34,3l-9.39,3.66-6.82-7,25.05-6.54,11.58-11.22Z"/><polygon class="cls-2" points="277.83 651.02 286.31 662.46 293.69 656.98 284.21 644.2 289.97 639.92 304.69 659.75 273.62 682.83 259.38 663.66 265.14 659.37 274.15 671.5 280.6 666.7 272.11 655.27 277.83 651.02"/><path class="cls-2" d="M267.41,600.56a25.14,25.14,0,0,1,5.92,8.14c6,12,1.63,21.85-8.22,26.78-11.81,5.9-22.59.78-27.84-9.68a23,23,0,0,1-2.72-9.32l7-1.5a18.62,18.62,0,0,0,2,7.21c3.11,6.2,9.27,9.16,17,5.32,6.93-3.47,9.25-9.77,5.74-16.76a22,22,0,0,0-4.38-5.94Z"/><path class="cls-2" d="M226.78,598.91l21.12-7c6.33-2.08,8.74-5.54,7.33-9.8s-5.28-5.74-11.76-3.6l-21.13,7-2.75-8.28,20.6-6.82c11.32-3.73,18.6.21,21.78,9.78,3,9.26-.25,16.4-12,20.27l-20.48,6.79Z"/><path class="cls-2" d="M234.7,527.89c-4.57.85-10.08,1.86-15.64,2.7l0,.16c5.06.45,10.73,1.24,15.43,2l15.61,2.4,1,6.75L237,548.23c-4.28,1.94-9.54,4-14.38,5.7l0,.11c5.18-.55,11.1-1.27,15.9-1.7l14.61-1.49,1.21,8-38.57,3.31L214,550.63,226.2,545c4.24-1.88,8.83-3.76,13.17-5.3l0-.16c-4.59-.42-9.82-1-14.25-1.59l-13.32-2.15-1.69-11.29L248,516.69l1.28,8.43Z"/><polygon class="cls-2" points="209.56 500 224.41 500.37 224.76 485.98 209.92 485.61 210.13 476.9 248.76 477.85 248.56 486.55 232.38 486.17 232.03 500.54 248.2 500.96 247.98 509.73 209.35 508.75 209.56 500"/><path class="cls-2" d="M213.19,454.55l21.88,4c6.53,1.2,10.32-.67,11.12-5.06s-1.87-7.58-8.57-8.8l-21.87-4,1.57-8.58L238.63,436c11.72,2.18,16.22,9.11,14.39,19-1.76,9.59-8.1,14.26-20.22,12l-21.19-3.91Z"/><path class="cls-2" d="M240,416.29l1.1-3.27c1.41-4.11.19-7.26-3-8.37-3.36-1.13-5.83.56-7.17,4.34a21.17,21.17,0,0,0-1,3.84Zm-18.55,2.79a78.47,78.47,0,0,1,3-11.26c1.86-5.44,4-9,6.92-10.85a9.81,9.81,0,0,1,8.8-.75,10.27,10.27,0,0,1,6.8,9.55l.17.05c1.9-2.21,4.83-2.77,8.5-2.56,4.52.29,9.68.78,11.34.56l-2.9,8.47c-1.23.23-4.52.09-9.39-.37s-6.68.56-7.88,3.9l-.86,2.5,14.38,4.93-2.8,8.19Z"/><path class="cls-2" d="M238.3,374.58l35.07,16.23-3.68,7.95-35.07-16.23Zm-9.06,5a3.94,3.94,0,0,1-1.9-5.3,3.83,3.83,0,0,1,5.19-1.83,3.89,3.89,0,0,1,1.94,5.12,4,4,0,0,1-5.23,2"/><path class="cls-2" d="M281.27,375.77l-13.62-8.09-25.87-1.16,5.1-8.6,10,1.35c3,.41,5.22.76,7.88,1.23l.06-.1c-1.63-2-3.08-3.92-4.87-6.3l-6-8.1,5-8.43L271.86,360l13.86,8.25Z"/><polygon class="cls-2" points="296.34 325.6 287.58 336.78 294.79 342.45 304.58 329.93 310.23 334.35 295.04 353.76 264.6 329.95 279.3 311.17 284.95 315.57 275.65 327.45 281.97 332.41 290.74 321.21 296.34 325.6"/><polygon class="cls-2" points="297.77 302.14 290.41 309.45 285.22 304.24 306.31 283.3 311.49 288.51 304 295.95 326.08 318.18 319.86 324.37 297.77 302.14"/><path class="cls-2" d="M320,272.2l24.48,29.95-6.8,5.55-24.48-29.94Zm-10.33.52a4,4,0,0,1,.6-5.62,3.84,3.84,0,0,1,5.48.64,3.88,3.88,0,0,1-.5,5.45,4,4,0,0,1-5.58-.47"/><path class="cls-2" d="M347.63,252.8,358.85,272c3.36,5.75,7.25,7.4,11.11,5.15s4.52-6.38,1.08-12.26l-11.22-19.24,7.53-4.39L378.29,260c6,10.32,3.67,18.25-5.05,23.34-8.42,4.92-16.1,3.15-22.32-7.51L340,257.22Z"/><polygon class="cls-2" points="379.21 235.72 387.32 232.36 399.31 261.34 413.53 255.46 416.34 262.24 394.01 271.47 379.21 235.72"/><path class="cls-2" d="M436.34,239.49l-4.41-7.35c-1.22-2-2.62-4.65-3.75-6.73l-.11,0c0,2.36.2,5.33.16,7.66l-.17,8.52Zm-7.86,8.79-.17,10.3-8.78,2.28,1.73-40.41,11.11-2.87L453.69,252l-9.11,2.37-5.38-8.87Z"/><path class="cls-2" d="M477,218.69a18.08,18.08,0,0,0-8.26-.86c-3.76.43-5.37,2.37-5.13,4.36.28,2.46,2.58,3.28,7.75,4.57,7.1,1.69,10.7,4.85,11.36,10.26s-2.33,10.63-9.68,12.85l-.82,2.45c2.23.26,4.4,1.51,4.72,4.19.48,3.93-2.9,5.66-6.16,6a10.38,10.38,0,0,1-5-.48l.72-3.68a7.18,7.18,0,0,0,3.28.41c1.16-.12,2-.64,1.89-1.6-.13-1.2-1.58-1.67-4.75-1.64l1.52-4.74a25.65,25.65,0,0,1-10.95-1.06l.92-7.4a22.56,22.56,0,0,0,9.91,1.25c4-.49,5.91-2.39,5.61-4.9s-2.27-3.53-7.09-4.65c-6.65-1.46-11.23-4.49-11.9-10.09-.78-6.54,4.1-12.22,13.16-13.29a23.29,23.29,0,0,1,10,.77Z"/><polygon class="cls-2" points="497.78 216.81 487.4 216.77 487.43 209.42 517.13 209.56 517.1 216.9 506.55 216.85 506.41 248.16 497.63 248.12 497.78 216.81"/><polygon class="cls-2" points="534.55 211.43 530.62 249.86 521.9 248.98 525.83 210.54 534.55 211.43"/><path class="cls-2" d="M551.94,231.46l3.36.7c4.26.88,7.24-.72,7.92-4,.73-3.48-1.26-5.72-5.18-6.6a23.53,23.53,0,0,0-3.92-.53Zm-5.09-18.06a77.28,77.28,0,0,1,11.56,1.6c5.62,1.17,9.37,2.83,11.62,5.52a9.79,9.79,0,0,1,1.82,8.65,10.26,10.26,0,0,1-8.62,7.92l0,.17c2.42,1.6,3.35,4.45,3.59,8.11.29,4.52.43,9.71.85,11.31l-8.74-1.81c-.4-1.2-.65-4.48-.81-9.37s-1.39-6.55-4.86-7.35l-2.57-.52-3.11,14.86-8.48-1.77Z"/><path class="cls-2" d="M608.4,255.82c1.53-4.39,3.39-9.7,5.42-14.92l-.15-.07c-2.92,4.16-6.41,8.71-9.43,12.39l-9.84,12.34-6.35-2.46,1.56-15.43c.48-4.68,1.23-10.29,2.22-15.32l-.12,0c-2.1,4.77-4.42,10.28-6.43,14.65l-6,13.43-7.54-2.94,16.3-35.1,10.85,4.22-1.15,13.38c-.5,4.61-1.13,9.54-2,14.06l.16.07c2.63-3.78,5.71-8,8.45-11.6L612.92,232l10.63,4.14-12,36.76-7.95-3.09Z"/><path class="cls-2" d="M642.16,272.06l2.16-8.28c.6-2.31,1.5-5.12,2.2-7.38l-.12-.07c-1.66,1.68-3.65,3.87-5.36,5.47l-6.21,5.85Zm-11.77.54-7.49,7.06L615.14,275l30.09-27,9.83,5.92-9.71,39.29-8-4.84,2.55-10.05Z"/><path class="cls-2" d="M664.92,309l16.52-37.09,7.14,6.39-7.39,15.32c-2.07,4.3-4.11,8.39-6.63,12.6l.12.13c3.83-2.83,7.78-5.45,11.7-7.86l14.69-9,6.94,6.2-35.48,20.15Z"/><polygon class="cls-2" points="712.48 334.96 703.25 324.14 696.27 330.09 706.57 342.18 701.12 346.82 685.13 328.06 714.53 302.99 730.01 321.14 724.55 325.79 714.77 314.31 708.65 319.53 717.89 330.35 712.48 334.96"/><path class="cls-2" d="M734.74,368.55l5.87-6.21c1.64-1.76,3.78-3.79,5.48-5.42l-.07-.1c-2.26.64-5.09,1.6-7.33,2.19l-8.24,2.13Zm-10.58-5.2-9.95,2.57-4.55-7.82L749,348.91l5.76,9.93L727.37,388.6l-4.73-8.15,7.09-7.55Z"/><polygon class="cls-2" points="764.89 378.42 768.27 386.5 739.39 398.56 745.29 412.73 738.52 415.56 729.23 393.27 764.89 378.42"/><polygon class="cls-2" points="771.18 415.56 768.24 405.6 775.29 403.52 783.69 432.05 776.65 434.13 773.67 423.98 743.61 432.83 741.13 424.43 771.18 415.56"/><path class="cls-2" d="M749.21,457.93l15.63-2.4L785.56,440l1.49,9.85-8.57,5.32c-2.6,1.62-4.52,2.72-6.87,4.06l0,.12c2.51.48,4.84,1.05,7.75,1.77l9.75,2.45,1.49,9.7-24.18-9.19-15.92,2.42Z"/><path class="cls-2" d="M769.31,498.65l8.14-2.61c2.28-.72,5.12-1.47,7.4-2.09v-.11c-2.31-.53-5.24-1-7.49-1.62l-8.24-2.11ZM762.55,489l-10-2.55-.19-9,38.88,11,.26,11.46-38.37,12.84-.21-9.41,9.85-3.2Z"/><path class="cls-2" d="M772,528.59a14.34,14.34,0,0,0-.56,2.88c-.56,4.63,1.45,7.75,5.36,8.21,3.55.44,6-1.76,6.46-6.09a14.37,14.37,0,0,0,.09-3.64Zm18.47-6.49a70.14,70.14,0,0,1-.6,11.82c-.64,5.35-2.13,9-4.49,11.36a11.29,11.29,0,0,1-9.38,3,12.31,12.31,0,0,1-8.68-4.63c-2.44-3.29-3.17-7.82-2.56-13a21.26,21.26,0,0,1,.54-2.93l-13.73-1.65,1-8.61Z"/><rect class="cls-2" x="761.39" y="539.66" width="8.77" height="38.65" transform="translate(54.77 1186.16) rotate(-77.54)"/><path class="cls-2" d="M759.89,593.85l-1,2.69c-1.65,4.29-.74,7.27,1.92,8.29s5-.5,6.4-4.19a21.26,21.26,0,0,0,1.11-3.59Zm-16-6.11a31.53,31.53,0,0,0-1.31,3.12c-1.42,3.7-1.26,7.49,2.53,8.95s6.35-1.32,7.91-5.4l1.06-2.8Zm32.95,3.31a69.57,69.57,0,0,1-3.28,10.84c-1.9,5-3.55,7.85-6.11,9.89a8.4,8.4,0,0,1-8.74,1.63c-3.22-1.22-5.51-4.24-5.44-8.88l-.11,0c-2.71,3.69-7,5.57-11.64,3.79a10.29,10.29,0,0,1-6.23-6.67c-1.1-3.43-.6-8.29,2.15-15.48a70,70,0,0,1,3.91-8.62Z"/><path class="cls-2" d="M733.91,633.64l8.34,1.85c2.33.52,5.18,1.3,7.45,1.92l.07-.11c-1.72-1.61-4-3.53-5.67-5.17l-6.06-6Zm-1-11.75-7.35-7.22,4.39-7.92,28.09,29-5.54,10-39.62-8.22,4.54-8.23,10.14,2.19Z"/><path class="cls-2" d="M740.85,664.92l-5.23,6.9L722,661.51l-.11.15c.68,1.58,1.21,3.13,1.8,4.67l5,14.74-6.47,8.56-5.42-20.13-25.84-2.64,6.16-8.13,19,2.51-1.25-5.12-10.06-7.6,5.21-6.93Z"/><path class="cls-2" d="M685.28,695.55l7.45,4.19c2.08,1.16,4.58,2.74,6.6,4l.07-.06c-1.18-2-2.81-4.55-3.92-6.59l-4.08-7.46ZM687.74,684l-5-9,6.49-6.3,18.51,35.89-8.21,8L664,693.3l6.74-6.56,9.05,5Z"/><path class="cls-2" d="M660.17,696.4l22.46,31.46-8.29,5.92-14.77-6.86a112.68,112.68,0,0,1-12.85-7.12l-.12.11a148.46,148.46,0,0,1,10,12.67l6.56,9.21-6.53,4.65L634.13,715l7.47-5.33L657,717a140.71,140.71,0,0,1,13.4,7.22l.11-.16c-3.15-4-6.42-8.38-10.08-13.52l-6.77-9.47Z"/><polygon class="cls-2" points="644.96 753.23 637.17 757.28 622.69 729.48 609.05 736.58 605.66 730.07 627.09 718.9 644.96 753.23"/><rect class="cls-2" x="599.54" y="732.21" width="8.79" height="38.69" transform="translate(-240.5 286.26) rotate(-22.36)"/><path class="cls-2" d="M584.39,788.91c-.52-1.15-1.72-2.24-4-1.6s-2.85,2.13-2.75,3.54l-4.29,1.22c-1.05-4.05.5-7.67,5.73-9.16,5.46-1.55,8.5.74,9.71,4.75ZM554.6,749.1a43.55,43.55,0,0,1,11.81-5.64c6.79-1.92,12.18-1.61,16.53.71s7.61,6.56,9.1,12c3.48,12.37-3.49,22-15.7,25.47a26.28,26.28,0,0,1-10.83,1.12l-.15-7.23a21.47,21.47,0,0,0,9.12-.86c7-2,11.17-7.48,8.86-15.53-2.18-7.68-8.27-10.83-15.17-8.86a11.85,11.85,0,0,0-4,1.73l2.21,7.77,5.74-1.63,1.88,6.56-13.84,3.95Z"/><rect class="cls-2" x="540.73" y="748.9" width="8.79" height="38.69" transform="matrix(0.99, -0.16, 0.16, 0.99, -118.54, 99.73)"/><path class="cls-2" d="M500,762.73a11.18,11.18,0,1,0,11.19,11.17A11.18,11.18,0,0,0,500,762.73"/><path class="cls-2" d="M500,270.28c-126.66,0-229.71,103.05-229.71,229.72S373.36,729.69,500,729.69,729.71,626.64,729.71,500,626.67,270.28,500,270.28m0,466.32c-130.47,0-236.61-106.13-236.61-236.6S369.55,263.37,500,263.37,736.65,369.51,736.65,500,630.48,736.6,500,736.6"/><path class="cls-2" d="M620.1,459.89a39.54,39.54,0,0,1-13.51,14.31,38.53,38.53,0,0,1-16.91,5.89,13.41,13.41,0,0,1-2,.19,39.68,39.68,0,0,1-20.88-74.67,29.94,29.94,0,0,1,4.6-2.09,38.86,38.86,0,0,1,11.71-2.47,39.66,39.66,0,0,1,34.55,16.52A31.72,31.72,0,0,0,580.47,412a28.56,28.56,0,0,0-4.07,2.58A31.9,31.9,0,0,0,564.1,434a30.77,30.77,0,0,0-.54,7.95A31.51,31.51,0,0,0,571,460.56a31.87,31.87,0,0,0,26.1,11.22h0a29.48,29.48,0,0,0,6-.94,31.44,31.44,0,0,0,16.93-10.95"/><polygon class="cls-2" points="646.55 440.21 653.27 448.43 639.33 444.77 631.52 456.92 630.69 442.51 616.77 438.85 630.17 433.6 629.34 419.25 633.29 424.03 638.5 430.37 651.93 425.15 644.15 437.26 646.55 440.21"/><path class="cls-2" d="M354.18,451.83s-85.34,94.85,125.24,117.64c161.81,9.16,220.13-44.4,220.13-44.4s-3.6,3.63-12.15,11.19c-7.27,6.4-102,85-285.17,45.29-29.19-6.31-54.32-14.74-84.88-41.72,0,0-56.38-53.76,36.83-88"/><path class="cls-2" d="M550,331.85s-13.24,11.91-22.21,33.27l-11.78-1s19-29.75,34-32.27"/><path class="cls-2" d="M503.32,385.24l12.28,1.82s-10.42,20.85-12.45,34.06l-14.69-1.88s9-27.47,14.86-34"/><path class="cls-2" d="M483.05,445.16l14.41,1.42s-3.92,35.3-2.85,49.34l-16.69-2.15s0-36.53,3.94-48.55Z"/><path class="cls-2" d="M478.2,519.33l17.48,1.79s.19,27.38,5.4,43.17l-17.24-.6S478,535.3,478.2,519.33"/><path class="cls-2" d="M495.78,598.64l13.59-.15s7.19,18.82,11.39,25.64l-14.26-.25s-9.92-17-10.72-25.24"/><path class="cls-2" d="M523,645.3l9.24-.7s9.61,16.64,18.25,21.4c0,0-13.82-4.81-26-19.1"/><path class="cls-2" d="M657.34,596.46s-53.8,53.12-238,21.56c0,0-15-11-27.73-32.33L370.85,579s8.58,18.06,29.92,39c20.74,20.39,59.41,47.4,115.48,54.33,0,0-56.53-19.6-72.43-34.68,0,0,158.16,21.45,213.71-41.33Z"/><path class="cls-2" d="M495.53,645.86s17.72,19.62,43.78,26.55c0,0-27.26-1.22-57-26.85Z"/><path class="cls-2" d="M438.94,593l17.29,2.38s6.45,16.92,15.38,25.8l-14.54-1.76a208.33,208.33,0,0,1-17.31-24.81"/><path class="cls-2" d="M418.1,506.8l16,4.45s.45,31.89,8.62,46.77L425,554.81s-10.44-33.47-6.89-48"/><path class="cls-2" d="M428.5,434l15,4.34a174.11,174.11,0,0,0-8.82,46.44l-16.41-5.52s.83-25.16,10.26-45.26"/><path class="cls-2" d="M452.64,412.59s13.23-25,19.24-31.72l-12.26-3.49s-15.69,19.51-20.56,31.16Z"/><path class="cls-2" d="M490.89,360.76s26.57-27.53,51.58-33.15c0,0-24.45-.72-63.48,29.74Z"/><path class="cls-2" d="M568.2,372.45s39.35,1.14,47.62-.16c0,0-35.15,9.73-47.38,10Z"/><path class="cls-2" d="M557.42,371.72l-.38,11s-69.15,2.84-116.24-16.89c0,0-23.73,13.76-33.2,32.5,0,0,24.19,24.52,122.14,31.08l-1,14.37s-84.75-2-131.48-29.43c0,0-20.46,22.48-21.9,48.79,0,0,40.76,40.82,185.25,43.35l-.07,13.28s-111.41,2.4-187.44-36.63c0,0-5,3.88-.33,51.37,0,0-19.58-9.05-22-18.3-.07-.25,0,0,0-.25-.38-9.42-5.43-42.35,15.36-84.84,4.46-9.12,10.34-18.23,17.29-28.14,2.33-3.32,48.48-66,135.16-74.14,0,0-38,11.08-57,22.49a47.47,47.47,0,0,0-5.88,4.08c-.06.06-.11.19-.18.16,16.23,7.09,27.88,9.5,62.29,13.6,10.78,1.28,22.41,1.54,39.66,2.58"/><path class="cls-2" d="M572.51,506.27S607,504.78,626.06,499l1.57,11.64s-21.35,7.26-54.36,8.67Z"/><path class="cls-2" d="M635.21,497.07s36.51-9.81,52.19-17.73c0,0-20.59,21.19-49.88,28.71Z"/><g class="cls-4"><path class="cls-5" d="M621.94,439.18h-.1c0-.1-.06-.19-.1-.29s-.06-.19-.09-.28l-.12-.36-.06.18-.07.18-.09.28c0,.1-.06.19-.1.29h-.09l-.34-1.08h.11l.17.59.1.35h0l.12-.35c0-.1.06-.19.1-.29l.09-.3h.1l.09.3.1.29.12.35h0l.11-.35.17-.59h.1Z"/><path class="cls-5" d="M623.46,439.18h-.09c0-.1-.07-.19-.1-.29l-.09-.28-.13-.36-.06.18-.06.18-.09.28c0,.1-.06.19-.1.29h-.1l-.33-1.08h.1l.18.59.1.35h0l.11-.35c0-.1.07-.19.1-.29s.06-.2.1-.3h.09c0,.1.07.2.1.3l.09.29.12.35h0l.1-.35.17-.59h.11Z"/><path class="cls-5" d="M625,439.18h-.1l-.09-.29c0-.09-.06-.19-.1-.28l-.12-.36-.06.18-.06.18-.1.28-.09.29h-.1l-.33-1.08h.1l.17.59.11.35h0l.12-.35c0-.1.06-.19.1-.29l.09-.3h.1c0,.1.07.2.09.3s.07.19.1.29l.12.35h0l.11-.35.17-.59h.11Z"/><path class="cls-5" d="M625.47,439.18V439h.12v.14Z"/><path class="cls-5" d="M626.29,438.93c0-.08.05-.17.08-.26s0-.17.08-.25l.24-.75h.16l-.5,1.51h-.12l-.51-1.51h.16l0,.09s0,.08,0,.13l0,.15c0,.06,0,.11,0,.16a.65.65,0,0,1,0,.13l0,.09.17.52Z"/><path class="cls-5" d="M627,438.67a.78.78,0,0,0,0,.16.27.27,0,0,0,.06.12.28.28,0,0,0,.1.09.41.41,0,0,0,.16,0l.12,0a.33.33,0,0,0,.13-.07l.08.1-.15.09-.18,0-.17,0-.15-.09a.5.5,0,0,1-.11-.16.75.75,0,0,1,0-.28.68.68,0,0,1,0-.26.45.45,0,0,1,.1-.18.46.46,0,0,1,.15-.09l.15,0a.48.48,0,0,1,.18,0,.45.45,0,0,1,.13.1.38.38,0,0,1,.09.15.64.64,0,0,1,0,.2v.1Zm.6-.11a.38.38,0,0,0-.08-.26.29.29,0,0,0-.42,0,.41.41,0,0,0-.1.26Z"/><path class="cls-5" d="M628.75,439.18l-.37-.58,0,0-.07.08-.07.07-.05.06v.32H628V437.6h.14v1.08h0l.06-.07.09-.1.11-.12.1-.12.09-.1.06-.07h.17l-.36.4a.25.25,0,0,0,0,.08.83.83,0,0,0,.08.12l.09.14.09.14.08.12,0,.08Z"/><path class="cls-5" d="M629.36,439.18a.25.25,0,0,1-.18-.07.33.33,0,0,1,0-.19v-.7H629v-.12h.14v-.28h.13v.28h.19v.12h-.19v.68s0,0,0,.06,0,0,0,.05l0,0h.15v.13Z"/><path class="cls-5" d="M630.08,438.09a.46.46,0,0,1,.21.05.34.34,0,0,1,.2.28.79.79,0,0,1,0,.23,1.25,1.25,0,0,1,0,.21.52.52,0,0,1-.07.15.4.4,0,0,1-.15.14.49.49,0,0,1-.21,0,.39.39,0,0,1-.33-.14.89.89,0,0,1-.08-.17,1.66,1.66,0,0,1,0-.24,1.25,1.25,0,0,1,0-.21,1,1,0,0,1,.07-.15.41.41,0,0,1,.15-.14A.46.46,0,0,1,630.08,438.09Zm0,.12a.26.26,0,0,0-.15,0,.32.32,0,0,0-.1.1.73.73,0,0,0-.05.12.86.86,0,0,0,0,.17,1,1,0,0,0,0,.18l.05.12a.28.28,0,0,0,.1.09.33.33,0,0,0,.14,0,.33.33,0,0,0,.15,0,.32.32,0,0,0,.11-.12l0-.11a.63.63,0,0,0,0-.16.79.79,0,0,0,0-.17.62.62,0,0,0,0-.1A.26.26,0,0,0,630.08,438.21Z"/><path class="cls-5" d="M631.34,438.26a.13.13,0,0,0-.08,0h-.07a.26.26,0,0,0-.21.08.29.29,0,0,0-.07.22v.66h-.14V438.1h.14v.16h0a.37.37,0,0,1,.14-.14l.18,0h.09l.07,0Z"/><path class="cls-5" d="M631.55,438.67a.81.81,0,0,0,0,.16.45.45,0,0,0,.06.12.24.24,0,0,0,.11.09.33.33,0,0,0,.15,0l.13,0a.29.29,0,0,0,.12-.07l.08.1a.46.46,0,0,1-.15.09.52.52,0,0,1-.18,0l-.16,0a.38.38,0,0,1-.15-.09.4.4,0,0,1-.12-.16.75.75,0,0,1,0-.28.68.68,0,0,1,0-.26.46.46,0,0,1,.11-.18.42.42,0,0,1,.14-.09l.15,0a.48.48,0,0,1,.18,0,.5.5,0,0,1,.14.1.53.53,0,0,1,.08.15.65.65,0,0,1,0,.2v.1Zm.6-.11a.39.39,0,0,0-.09-.26.25.25,0,0,0-.21-.09.26.26,0,0,0-.21.09.36.36,0,0,0-.09.26Z"/><path class="cls-5" d="M632.78,439.18a.27.27,0,0,1-.19-.06c-.05,0-.07-.09-.07-.18V437.6h.13v1.32c0,.09.05.13.14.13h0v.13Z"/><path class="cls-5" d="M634,438.88a.58.58,0,0,1-.18.23.61.61,0,0,1-.3.08.75.75,0,0,1-.24,0,.76.76,0,0,1-.17-.13,1,1,0,0,1-.1-.17.78.78,0,0,1,0-.22v-.43a.76.76,0,0,1,0-.21,1,1,0,0,1,.1-.17.52.52,0,0,1,.17-.12.55.55,0,0,1,.24,0,.47.47,0,0,1,.29.08.45.45,0,0,1,.19.22l-.14.06a.34.34,0,0,0-.13-.16.38.38,0,0,0-.21-.07.34.34,0,0,0-.18,0,.27.27,0,0,0-.12.09.54.54,0,0,0-.07.13,1,1,0,0,0,0,.16v.42a.88.88,0,0,0,0,.16.54.54,0,0,0,.07.13.4.4,0,0,0,.12.1.48.48,0,0,0,.18,0,.35.35,0,0,0,.21-.06.34.34,0,0,0,.13-.18Z"/><path class="cls-5" d="M634.19,437.81v-.14h.14v.14Zm0,1.37V438.1h.14v1.08Z"/><path class="cls-5" d="M634.57,439.18v-.12l.62-.84h-.59v-.12h.75v.12l-.62.83h.62v.13Z"/><path class="cls-5" d="M635.58,437.81v-.14h.14v.14Zm0,1.37V438.1h.14v1.08Z"/><path class="cls-5" d="M637.42,438.51a.28.28,0,0,0-.07-.21.25.25,0,0,0-.2-.08l-.12,0-.09.06a.21.21,0,0,0-.06.1.27.27,0,0,0,0,.12v.66h-.13v-.67a.33.33,0,0,0-.07-.21.29.29,0,0,0-.21-.08.28.28,0,0,0-.2.08.29.29,0,0,0-.08.22v.66H636V438.1h.14v.16h0a.35.35,0,0,1,.14-.13.42.42,0,0,1,.38,0,.29.29,0,0,1,.13.14h0a.29.29,0,0,1,.16-.13.46.46,0,0,1,.21-.05.32.32,0,0,1,.14,0,.37.37,0,0,1,.12.07.26.26,0,0,1,.07.11.41.41,0,0,1,0,.16v.72h-.13Z"/><path class="cls-5" d="M637.82,439.18V439H638v.14Z"/><path class="cls-5" d="M638.92,439.18v-.69a.32.32,0,0,0-.07-.23.34.34,0,0,0-.23-.08l-.13,0a.23.23,0,0,0-.11.08.3.3,0,0,0-.07.11.61.61,0,0,0,0,.13v.66h-.09V438.1h.09v.19h0a.22.22,0,0,1,.07-.09.16.16,0,0,1,.08-.06l.1,0h.1a.37.37,0,0,1,.28.1.37.37,0,0,1,.09.27v.72Z"/><path class="cls-5" d="M639.33,438.65a1,1,0,0,0,0,.18.35.35,0,0,0,.06.14.23.23,0,0,0,.12.1.31.31,0,0,0,.17,0,.35.35,0,0,0,.14,0L640,439l.06.06a.6.6,0,0,1-.15.09l-.16,0-.17,0a.55.55,0,0,1-.15-.08.56.56,0,0,1-.11-.17,1,1,0,0,1,0-.28,1,1,0,0,1,0-.27.69.69,0,0,1,.1-.17.55.55,0,0,1,.14-.09l.16,0a.34.34,0,0,1,.18,0,.36.36,0,0,1,.14.1.6.6,0,0,1,.08.16,1,1,0,0,1,0,.19v.07Zm.68-.08a.51.51,0,0,0-.1-.3.3.3,0,0,0-.24-.1.3.3,0,0,0-.24.11.55.55,0,0,0-.1.29Z"/><path class="cls-5" d="M640.6,439.18a.18.18,0,0,1-.17-.07.27.27,0,0,1,0-.19v-.74h-.15v-.08h.15v-.28h.09v.28h.2v.08h-.2v.74s0,.05,0,.07a.08.08,0,0,0,0,.05.1.1,0,0,0,0,0h.15v.09Z"/></g></svg>